<svg width="60" height="60" viewBox="0 0 60 60" fill="none" xmlns="http://www.w3.org/2000/svg">
<g clip-path="url(#clip0_7_157)">
<path d="M58.5441 37.8743C58.5044 37.8659 58.4648 37.8596 58.4255 37.8552C57.8341 37.7899 57.2794 38.1822 57.1527 38.7759C55.761 45.3004 51.4048 51.0415 45.5015 54.1533L41.0239 49.6746C40.6301 49.2809 40.4132 48.7578 40.4132 48.2017V44.6755C40.4132 44.1195 40.6301 43.5964 41.0239 43.2026L47.6332 36.5933C48.9948 35.2315 49.7448 33.4208 49.7448 31.4943V27.0119C49.7448 24.5352 47.6782 22.4686 45.2014 22.4686C44.3768 22.4686 43.706 21.7978 43.706 20.9733V19.56C43.706 18.7347 44.3768 18.0635 45.2014 18.0635H51.1585C54.0987 21.0764 56.1945 24.9084 57.1097 29.0197C57.2503 29.6516 57.8768 30.0494 58.5082 29.9089C59.0837 29.7808 59.5256 29.0859 59.3975 28.5103C56.9563 17.5513 47.1724 9.37394 35.9547 8.88152C36.3568 7.97566 36.5581 6.98203 36.5249 5.97012L36.457 3.89555C36.4042 2.28868 35.1043 0.988604 33.4973 0.935987L31.4228 0.868018C29.521 0.803916 27.6848 1.562 26.3788 2.94329C26.3721 2.95044 26.3655 2.95758 26.3589 2.96485L22.7133 7.01965L8.30435 1.80973C7.87685 1.65528 7.39861 1.76181 7.07717 2.08313L4.22811 4.93207C3.98272 5.17746 3.85874 5.51906 3.88944 5.86465C3.92038 6.21035 4.10272 6.52465 4.38772 6.72281L15.8274 14.6784L9.30232 21.9363C8.81119 22.4826 8.08615 22.7342 7.36146 22.6093L4.49389 22.1144C4.11901 22.05 3.73534 22.1713 3.46604 22.4407L0.343235 25.5636C0.0628062 25.844 -0.0567248 26.2473 0.0255407 26.6353C0.107689 27.0233 0.380618 27.3433 0.750696 27.4858L7.36123 30.0316L9.84478 36.4808C11.0884 49.1512 22.1503 59.1354 34.8609 59.1354C46.5833 59.1354 57.0048 50.7059 59.4457 39.2649C59.5807 38.632 59.177 38.0093 58.5441 37.8743ZM28.4674 16.394L32.6929 28.7326L31.3624 30.0632L24.4972 19.9626L28.4674 16.394ZM6.87619 5.59863L8.20791 4.26704L21.0223 8.90038L17.4068 12.9219L6.87619 5.59863ZM8.68896 28.0313L3.27491 25.9463L4.69381 24.5274L6.96279 24.9189C8.48552 25.1814 10.0119 24.6526 11.0451 23.5032L28.0912 4.54348C28.9355 3.65602 30.1201 3.17075 31.3458 3.21047L33.4204 3.27844C33.797 3.29075 34.1018 3.59567 34.1141 3.97231L34.1822 6.04699C34.2224 7.2716 33.7367 8.45695 32.8492 9.3014L13.8897 26.3472C12.754 27.3684 12.2141 28.9246 12.4739 30.4298L12.8655 32.6988L11.4464 34.1177L9.36138 28.7037C9.24244 28.3947 8.9981 28.1504 8.68896 28.0313ZM26.1726 49.1557V55.0752C21.3176 53.0732 17.1511 49.3253 14.7117 44.6655L17.5564 41.8219C17.6766 41.7011 17.8375 41.6347 18.0093 41.6347H24.3621C25.1603 41.6347 25.9107 41.3239 26.4749 40.7594L27.6095 39.625C27.8568 39.3777 28.2725 39.3777 28.5197 39.625L31.0381 42.1434C31.2896 42.4468 31.2896 42.7502 31.0382 43.0536L27.048 47.0427C26.4834 47.607 26.1726 48.3575 26.1726 49.1557ZM28.5163 55.8945V49.1557C28.5163 48.9836 28.5834 48.8218 28.705 48.7001L32.6952 44.7111C33.825 43.5813 33.8091 41.5998 32.6954 40.486L30.177 37.9677C29.0256 36.8163 27.1037 36.8161 25.9523 37.9677L24.8177 39.1021C24.6959 39.2239 24.5341 39.2909 24.3619 39.2909H18.0092C17.2098 39.2909 16.4592 39.6023 15.8976 40.1661L13.6647 42.3981C12.9398 40.5694 12.4503 38.6425 12.2197 36.6591L14.9522 33.927C15.2216 33.6577 15.3433 33.2744 15.2785 32.899L14.7838 30.0305C14.6605 29.3157 14.917 28.5753 15.4564 28.0903L22.738 21.5437L30.22 32.5519C30.6263 33.1495 31.506 33.2339 32.0179 32.7219L34.867 29.8728C35.1832 29.5565 35.2919 29.0878 35.147 28.6645L30.3613 14.69L34.2327 11.2094C34.439 11.2038 34.649 11.2009 34.8609 11.2009C39.7668 11.2009 44.5683 12.7998 48.4841 15.7196H45.2015C43.0847 15.7196 41.3624 17.4424 41.3624 19.5599V20.9731C41.3624 23.09 43.0846 24.8122 45.2015 24.8122C46.4011 24.8122 47.4012 25.8121 47.4012 27.0118V31.4942C47.4012 32.7946 46.8951 34.0169 45.9761 34.9359L39.3667 41.5452C38.5302 42.3817 38.0697 43.4934 38.0697 44.6754V48.2016C38.0697 49.3837 38.5303 50.4954 39.3666 51.3317L43.2299 55.1958C40.5818 56.2402 37.7406 56.7913 34.8611 56.7913C32.6916 56.7917 30.5587 56.485 28.5163 55.8945Z" fill="#FF5E14"/>
<path d="M59.9776 33.7674C59.8509 33.1429 59.2259 32.7215 58.5995 32.8475C57.9738 32.9732 57.5535 33.5988 57.6796 34.2256C57.8053 34.8506 58.43 35.2707 59.0565 35.1455C59.68 35.021 60.1044 34.3928 59.9776 33.7674Z" fill="#FF5E14"/>
</g>
<defs>
<clipPath id="clip0_7_157">
<rect width="60" height="60" fill="white"/>
</clipPath>
</defs>
</svg>
