<svg width="60" height="60" viewBox="0 0 60 60" fill="none" xmlns="http://www.w3.org/2000/svg">
<path d="M56.7792 10.4328C56.6435 8.91108 55.3891 7.7635 53.8612 7.7635H46.2818V6.64651H46.4294C47.5117 6.64651 48.3922 5.766 48.3922 4.68381V1.9627C48.3922 0.880514 47.5117 0 46.4294 0H24.1212C23.6358 0 23.2423 0.393384 23.2423 0.878874C23.2423 1.36436 23.6358 1.75775 24.1212 1.75775H46.4294C46.5424 1.75775 46.6344 1.84962 46.6344 1.9627V4.68381C46.6344 4.79689 46.5424 4.88876 46.4294 4.88876H13.5705C13.4574 4.88876 13.3654 4.79689 13.3654 4.68381V1.9627C13.3654 1.84962 13.4574 1.75775 13.5705 1.75775H20.0005C20.4858 1.75775 20.8793 1.36436 20.8793 0.878874C20.8793 0.393384 20.4858 0 20.0005 0H13.5705C12.4882 0 11.6077 0.880514 11.6077 1.9627V4.68381C11.6077 5.766 12.4882 6.64651 13.5705 6.64651H13.718V7.7635H6.13863C4.6108 7.7635 3.35635 8.91108 3.22065 10.4328C3.20284 10.6318 2.80794 15.3687 4.74767 20.615C6.52241 25.415 10.5941 31.5439 19.923 33.9492C21.4248 35.1358 23.1397 36.0644 25.0002 36.6661L25.4426 37.3963C26.2787 38.7766 26.7206 40.4084 26.7206 42.1152C26.7206 43.1577 26.5544 44.1763 26.2268 45.1422L25.6125 46.9525H23.5687C21.4713 46.9525 19.7649 48.6589 19.7649 50.7564V52.5974H16.5663C15.6636 52.5974 14.9292 53.3319 14.9292 54.2346V58.363C14.9292 59.2656 15.6636 60 16.5663 60H43.4337C44.3364 60 45.0707 59.2656 45.0707 58.363V54.2346C45.0707 53.3319 44.3364 52.5974 43.4337 52.5974H40.2351V50.7564C40.2351 48.6589 38.5286 46.9525 36.4313 46.9525H34.3875L33.7732 45.1422C33.4455 44.1764 33.2793 43.1578 33.2793 42.1152C33.2793 40.4085 33.7212 38.7767 34.5573 37.3963L34.9997 36.6661C36.8602 36.0644 38.5749 35.136 40.0769 33.9492C49.4058 31.5439 53.4775 25.415 55.2522 20.615C57.1919 15.3687 56.797 10.6319 56.7792 10.4328ZM14.0435 24.4156C12.4048 22.8814 11.1494 20.9782 10.2908 18.7099C9.6942 17.1338 9.30375 15.4226 9.12997 13.6227H13.718V21.1707C13.718 22.2816 13.8304 23.3667 14.0435 24.4156ZM6.39644 20.0055C4.5924 15.1262 4.9552 10.7719 4.97149 10.589C5.02574 9.98037 5.52752 9.52137 6.13863 9.52137H13.718V11.865H9.0572C8.58237 11.865 8.12676 12.0662 7.80709 12.4171C7.48706 12.7684 7.32886 13.2413 7.37304 13.7148C7.55807 15.6979 7.98661 17.5879 8.64682 19.3323C9.95072 22.7772 12.0613 25.4672 14.9503 27.3822C15.5188 28.7542 16.2696 30.0322 17.1726 31.1858C10.8051 28.5465 7.80627 23.8184 6.39644 20.0055ZM43.313 54.3552V58.2423H16.6869V54.3552H43.313ZM36.4313 48.7102C37.5594 48.7102 38.4773 49.6281 38.4773 50.7564V52.5974H21.5227V50.7564C21.5227 49.6281 22.4406 48.7102 23.5687 48.7102H36.4313ZM32.1088 45.7071L32.5313 46.9525H27.4684L27.8911 45.7069C28.2806 44.5587 28.4782 43.3503 28.4782 42.1152C28.4782 40.3864 28.0918 38.7173 27.3571 37.2369C28.2176 37.378 29.1001 37.4526 29.9999 37.4526C30.8997 37.4526 31.7823 37.378 32.6426 37.2369C31.9079 38.7173 31.5216 40.3864 31.5216 42.1152C31.5217 43.3504 31.7191 44.5588 32.1088 45.7071ZM29.9999 35.6947C21.9913 35.6947 15.4758 29.1792 15.4758 21.1707V6.64651H44.5241V21.1707C44.5241 29.1793 38.0086 35.6947 29.9999 35.6947ZM53.6035 20.0055C52.1937 23.8185 49.1948 28.5471 42.8269 31.1864C43.7316 30.0306 44.4835 28.7502 45.0525 27.3754C47.5331 25.7281 49.4435 23.5096 50.759 20.7317C50.9668 20.2931 50.7796 19.7689 50.3409 19.5613C49.9024 19.3536 49.3784 19.5406 49.1705 19.9794C48.3561 21.6993 47.282 23.1811 45.9557 24.421C46.1695 23.3704 46.2821 22.2835 46.2821 21.1708V13.6228H50.8701C50.7827 14.5271 50.6374 15.4239 50.4381 16.2896C50.3292 16.7627 50.6244 17.2345 51.0975 17.3432C51.5701 17.4527 52.0422 17.157 52.1511 16.684C52.373 15.7197 52.5331 14.7207 52.6271 13.7148C52.6712 13.2413 52.513 12.7684 52.193 12.4171C51.8733 12.0662 51.4177 11.865 50.9429 11.865H46.2821V9.52137H53.8615C54.4726 9.52137 54.9744 9.98037 55.0286 10.5891C55.0447 10.7719 55.4075 15.1262 53.6035 20.0055Z" fill="#FF5E14"/>
<path d="M35.7793 17.0692L33.2592 16.703C33.1494 16.6869 33.0546 16.618 33.0055 16.5187L31.8784 14.235C31.523 13.5148 30.8032 13.0674 30.0001 13.0674C29.1969 13.0674 28.4771 13.5148 28.1217 14.235L26.9947 16.5187C26.9456 16.6181 26.8508 16.6871 26.741 16.703L24.2208 17.0692C23.426 17.1846 22.7781 17.7308 22.5299 18.4947C22.2817 19.2586 22.4848 20.0814 23.0599 20.6421L24.8835 22.4195C24.9629 22.497 24.9992 22.6084 24.9804 22.7179L24.5499 25.2279C24.4141 26.0195 24.7334 26.8044 25.3832 27.2765C26.0328 27.7484 26.8782 27.8097 27.5893 27.436L29.8433 26.251C29.9415 26.1993 30.0587 26.1993 30.1569 26.251L32.411 27.436C32.7202 27.5986 33.0548 27.6788 33.3876 27.6788C33.8201 27.6788 34.2498 27.5433 34.617 27.2764C35.2667 26.8043 35.5861 26.0193 35.4502 25.2278L35.0197 22.7178C35.001 22.6083 35.0372 22.4969 35.1166 22.4195L36.9403 20.6419C37.5155 20.0813 37.7186 19.2584 37.4704 18.4946C37.2222 17.7308 36.574 17.1846 35.7793 17.0692ZM35.7133 19.3833L33.8896 21.161C33.3959 21.6423 33.1707 22.3353 33.2872 23.0149L33.7177 25.525C33.7485 25.7046 33.6469 25.8086 33.5836 25.8546C33.5205 25.9007 33.3902 25.9654 33.2288 25.8803L30.9747 24.6952C30.6695 24.5348 30.3347 24.4545 29.9999 24.4545C29.6652 24.4545 29.3304 24.5348 29.0252 24.6952L26.7712 25.8803C26.61 25.9653 26.4796 25.9006 26.4162 25.8546C26.353 25.8086 26.2515 25.7048 26.2822 25.525L26.7127 23.0149C26.8293 22.3353 26.6041 21.6423 26.1103 21.1609L24.2867 19.3834C24.1561 19.2562 24.1771 19.1124 24.2014 19.038C24.2255 18.9636 24.293 18.8349 24.4734 18.8087L26.9935 18.4425C27.676 18.3432 28.2655 17.9149 28.5707 17.2966L29.6977 15.013C29.7783 14.8495 29.9217 14.8251 29.9998 14.8251C30.078 14.8251 30.2213 14.8495 30.3019 15.013L31.429 17.2966C31.7341 17.9149 32.3237 18.3433 33.0062 18.4425L35.5264 18.8087C35.7068 18.8349 35.7743 18.9636 35.7984 19.038C35.8228 19.1124 35.8438 19.2562 35.7133 19.3833Z" fill="#FF5E14"/>
</svg>
