<svg width="60" height="60" viewBox="0 0 60 60" fill="none" xmlns="http://www.w3.org/2000/svg">
<path d="M1.17188 49.6868H2.38394V48.8795C2.38394 44.9962 5.5432 41.837 9.42644 41.837H10.7454L11.9409 22.4558C11.9579 20.8926 12.5297 19.4606 13.4689 18.3473C13.4817 18.3301 13.4938 18.3125 13.5076 18.2958L25.519 3.86998C26.4111 2.57564 27.903 1.7251 29.5904 1.7251H46.1201C46.1203 1.7251 46.1204 1.7251 46.1207 1.7251C48.3898 1.72568 50.2363 3.56764 50.2452 5.83486C50.2453 5.84025 50.246 5.84553 50.246 5.85104V17.5731C50.246 18.223 50.0945 18.838 49.8257 19.3855C50.0534 19.4369 50.2629 19.5551 50.4247 19.7287L53.6388 23.1772C53.841 23.3942 53.9535 23.6797 53.9535 23.9762V27.8378C53.8958 29.391 51.6668 29.3898 51.6097 27.8378V24.4376L49.0579 21.6996H43.1815L40.6296 24.4376V27.8378C40.572 29.391 38.3429 29.3898 38.2859 27.8378V23.9762C38.2859 23.6797 38.3982 23.3941 38.6005 23.1772L41.8145 19.7287C41.9763 19.5551 42.1859 19.4369 42.4136 19.3855C42.1446 18.8381 41.993 18.223 41.993 17.5731V10.369L32.4261 11.3526L24.9452 22.8413L26.117 41.8371H27.4359C31.3192 41.8371 34.4783 44.9963 34.4783 48.8796V49.6869H58.8281C59.4754 49.6869 60 50.2117 60 50.8588V57.1033C60 57.7504 59.4754 58.2752 58.8281 58.2752H36.0422C34.489 58.2176 34.4902 55.9885 36.0422 55.9315H57.6562V52.0306H2.34375V55.9315H25.7319C27.2851 55.9891 27.2839 58.2181 25.7319 58.2752H1.17188C0.524648 58.2752 0 57.7504 0 57.1033V50.8588C0 50.2115 0.524648 49.6868 1.17188 49.6868ZM16.8911 26.3777C19.5341 27.4929 22.6355 25.4017 22.5795 22.5271C22.3071 17.0308 14.5582 17.0326 14.2829 22.5272C14.2828 24.2058 15.3343 25.753 16.8911 26.3777ZM27.4013 5.2699C26.2866 6.94322 27.578 9.30244 29.5904 9.26564C33.0339 9.09373 33.032 4.23924 29.5903 4.06885C28.6717 4.06885 27.8636 4.54838 27.4013 5.2699ZM47.7069 9.65928C46.635 10.1079 45.3847 10.0769 44.3366 9.5742V17.5731C44.3366 18.5558 45.1366 19.3553 46.1201 19.3553C47.1028 19.3553 47.9023 18.5558 47.9023 17.5731V9.57186C47.8378 9.60244 47.7728 9.63174 47.7069 9.65928ZM46.1198 4.06885C45.1516 4.06885 44.3372 4.88201 44.3372 5.85127C44.4571 8.21248 47.7843 8.21225 47.9019 5.85127C47.9019 4.86854 47.1025 4.06896 46.1198 4.06885ZM41.9929 8.01291V5.85104C41.9929 5.23838 42.1304 4.62127 42.3955 4.06885H33.7929C34.6759 5.49115 34.7718 7.32689 34.0356 8.83111L41.9929 8.01291ZM29.3985 11.6049C27.3804 11.5276 25.5652 10.1729 24.9122 8.2617L18.4398 16.0352C20.8727 16.0378 23.1517 17.4566 24.2402 19.629L29.4632 11.6079C29.4415 11.6073 29.42 11.6058 29.3985 11.6049ZM22.8697 27.2608C20.4066 29.5721 16.4561 29.5713 13.9928 27.2608L13.0936 41.8371H23.7689L22.8697 27.2608ZM32.1346 49.6868V48.8795C32.1346 46.2887 30.0267 44.1807 27.4359 44.1807H9.42644C6.83555 44.1807 4.72769 46.2886 4.72769 48.8795V49.6868H32.1346Z" fill="white"/>
<path d="M42.5516 41.8115C42.2399 41.8115 41.9288 41.6878 41.6983 41.4429C41.2546 40.9717 41.2769 40.23 41.7481 39.7864C42.8797 38.7207 44.3596 38.1338 45.915 38.1338C47.4703 38.1338 48.9502 38.7207 50.082 39.7864C50.5532 40.23 50.5754 40.9716 50.1319 41.4429C49.6881 41.9141 48.9465 41.9365 48.4753 41.4927C47.1 40.1484 44.7301 40.1484 43.3549 41.4927C43.1284 41.7059 42.8398 41.8115 42.5516 41.8115Z" fill="white"/>
<path d="M39.2653 38.3149C38.9534 38.3149 38.642 38.191 38.4114 37.9459C37.9679 37.4746 37.9908 36.7328 38.4622 36.2894C42.4688 32.3781 49.3611 32.3782 53.3676 36.2894C53.839 36.7328 53.8617 37.4744 53.4184 37.9459C52.975 38.4174 52.2333 38.4403 51.7618 37.9967C48.6188 34.9283 43.2109 34.9285 40.0679 37.9967C39.8417 38.2096 39.5533 38.3149 39.2653 38.3149Z" fill="white"/>
<path d="M44.9402 43.5671C45.2972 43.0368 46.0328 42.8901 46.5656 43.2437C47.8133 44.1659 46.5978 45.9904 45.2648 45.1925C44.7332 44.8386 44.5866 44.0979 44.9402 43.5671Z" fill="white"/>
<path d="M29.7387 56.6556C29.9808 56.0644 30.6803 55.7777 31.2692 56.0216C32.6728 56.6827 31.8318 58.7111 30.3727 58.1849C29.7841 57.9406 29.4927 57.2455 29.7387 56.6556Z" fill="white"/>
</svg>
