<svg id="fi_5677110" height="70" viewBox="0 0 64 64" width="70" fill="#fff" xmlns="http://www.w3.org/2000/svg"><path d="m35.302 7.071h-4.281-4.28l-.272 3.275h9.105z"></path><path d="m42.694 19.553.356-4.29h-5.061l.357 4.29z"></path><path d="m54.297 7.071h-4.28-4.28l-.272 3.275h9.104z"></path><path d="m55.334 19.553-.599-7.207h-9.436l-.599 7.207z"></path><path d="m36.338 19.553-.598-7.207h-9.437l-.599 7.207z"></path><path d="m17.474 19.553-.599-7.207h-9.436l-.599 7.207z"></path><path d="m16.437 7.071h-4.28-4.28l-.272 3.275h9.104z"></path><path d="m23.698 19.553.356-4.29h-4.929l.356 4.29z"></path><path d="m49.633 28.193h11.628v4.451h-11.628z"></path><path d="m36.779 34.638v20.581h24.483v-20.574zm18.037 9.684-7.124 8.828a1 1 0 0 1 -.778.372 1.012 1.012 0 0 1 -.377-.074 1 1 0 0 1 -.618-1.021l.524-5.5-2.437.006a1 1 0 0 1 -.778-1.628l6.933-8.594a1 1 0 0 1 1.776.71l-.437 5.265 2.544.008a1 1 0 0 1 .775 1.628z"></path><path d="m49.675 44.358a1 1 0 0 1 -.261-.758l.258-3.105-3.572 4.429h1.441a1 1 0 0 1 .995 1.095l-.313 3.29 3.726-4.618h-1.543a1 1 0 0 1 -.731-.333z"></path><path d="m22.003 41.442h5.385v5.385h-5.385z"></path><path d="m10.253 41.442h5.385v5.385h-5.385z"></path><path d="m10.253 29.946h5.385v5.385h-5.385z"></path><path d="m3.016 21.553v33.666h31.763v-22.582h12.855v-6.444h11.393v-4.64zm14.622 26.273a1 1 0 0 1 -1 1h-7.385a1 1 0 0 1 -1-1v-7.384a1 1 0 0 1 1-1h7.385a1 1 0 0 1 1 1zm0-11.5a1 1 0 0 1 -1 1h-7.385a1 1 0 0 1 -1-1v-7.38a1 1 0 0 1 1-1h7.385a1 1 0 0 1 1 1zm11.75 11.5a1 1 0 0 1 -1 1h-7.388a1 1 0 0 1 -1-1v-7.384a1 1 0 0 1 1-1h7.385a1 1 0 0 1 1 1zm0-11.5a1 1 0 0 1 -1 1h-7.388a1 1 0 0 1 -1-1v-7.38a1 1 0 0 1 1-1h7.385a1 1 0 0 1 1 1z"></path><path d="m22.003 29.946h5.385v5.385h-5.385z"></path></svg>