<svg id="fi_11445159" fill="#fff" width="70" height="70" enable-background="new 0 0 512 512" viewBox="0 0 512 512" xmlns="http://www.w3.org/2000/svg"><path clip-rule="evenodd" d="m325.655 280.866c-25.471-12.426-54.088-19.403-84.337-19.403-25.951 0-50.698 5.142-73.292 14.446 4.051 1.518 8.013 3.271 11.864 5.25l9.012-4.003c7.169-3.184 15.6-1.618 21.147 3.929l18.571 18.57c5.547 5.547 7.113 13.979 3.929 21.148l-4 9.006c.275.535.546 1.073.812 1.613h96.295v-50.556zm10.188-151.653c0-37.49-22.095-71.379-56.34-86.517l-3.853 29.67c-1.63 12.551-12.218 21.918-24.887 21.918h-18.887c-12.67 0-23.257-9.367-24.887-21.918l-3.853-29.671c-34.24 15.137-56.34 49.023-56.34 86.509zm10.526 28.157c3.327 0 6.08-2.751 6.08-6.079s-2.752-6.079-6.08-6.079c-70.033 0-140.067 0-210.1 0-3.327 0-6.079 2.752-6.079 6.079s2.752 6.079 6.079 6.079zm-81.461-126.056-5.071 39.051c-.599 4.616-4.436 7.919-9.075 7.919h-18.887c-4.64 0-8.476-3.302-9.075-7.919-1.692-13.024-4.265-26.869-5.127-39.777-.223-3.278 1.594-5.601 4.283-7.242 4.023-2.456 9.696-3.772 14.992-4.459 3.356-.436 5.39-.435 8.745 0 5.295.687 10.967 2.004 14.989 4.46 3.003 1.833 4.694 4.365 4.226 7.967zm54.569 462.125-31.646-31.646 66.311-66.311c2.704-2.704 7.128-2.704 9.832 0l21.814 21.814c2.704 2.704 2.704 7.128 0 9.831zm58.669-106.413 16.098 16.098 66.146-66.146 17.541-6.491 17.203-27.496c.75-1.199.578-2.712-.422-3.712l-12.722-12.723c-1-1-2.514-1.172-3.713-.422l-27.495 17.204-6.491 17.541zm-139.171-21.902-16.675-6.418c-2.358-9.913-6.288-19.382-11.631-28.058l7.257-16.34c.514-1.157.275-2.444-.62-3.339l-18.571-18.57c-.896-.896-2.182-1.134-3.339-.62l-16.345 7.259c-8.675-5.341-18.141-9.271-28.051-11.629l-6.42-16.679c-.455-1.181-1.534-1.922-2.8-1.922h-26.262c-1.266 0-2.345.741-2.799 1.922l-6.42 16.679c-9.911 2.358-19.376 6.288-28.052 11.629l-16.345-7.259c-1.156-.514-2.444-.274-3.339.62l-18.57 18.571c-.896.895-1.135 2.182-.621 3.339l7.259 16.344c-5.342 8.675-9.272 18.142-11.63 28.053l-16.677 6.42c-1.181.455-1.922 1.534-1.922 2.799v26.263c0 1.266.741 2.345 1.922 2.799l16.675 6.418c2.359 9.913 6.288 19.383 11.631 28.058l-7.257 16.34c-.514 1.157-.275 2.444.62 3.339l18.57 18.57c.895.896 2.182 1.134 3.339.62l16.346-7.26c8.675 5.341 18.14 9.271 28.051 11.629l6.42 16.679c.455 1.181 1.534 1.922 2.799 1.922h26.262c1.266 0 2.345-.741 2.8-1.922l6.418-16.674c9.913-2.359 19.383-6.288 28.059-11.631l16.339 7.257c1.157.514 2.444.275 3.339-.62l18.571-18.571c.895-.895 1.135-2.182.621-3.339l-7.26-16.345c5.341-8.675 9.27-18.14 11.629-28.051l16.679-6.42c1.181-.455 1.922-1.534 1.922-2.8v-26.263c0-1.265-.741-2.344-1.922-2.799zm-110.326 73.597c-31.851 0-57.666-25.815-57.666-57.665 0-31.851 25.815-57.666 57.666-57.666s57.666 25.815 57.666 57.666c0 31.85-25.815 57.665-57.666 57.665zm100.378-5.343-.481-1.083c2.781-5.413 5.117-11.046 6.982-16.839l9.194-3.539c7.357-2.832 12.174-9.848 12.174-17.732v-26.263c0-7.883-4.818-14.9-12.174-17.731l-7.199-2.771h104.132v-57.782c14.227 8.7 27.238 19.189 38.718 31.162v41.369l-15.924 15.924c-7.514-1.803-15.768.221-21.621 6.073l-49.21 49.21zm107.776-260.008c-8.958 44.544-48.302 78.093-95.485 78.093-47.182 0-86.527-33.549-95.484-78.093zm59.57 260.008v-9.756l28.402-28.401c2.753 8.584 4.931 17.426 6.466 26.487 1.039 6.138-3.636 11.671-9.861 11.671h-25.007z" fill-rule="evenodd"></path></svg>