<svg width="155" height="58" viewBox="0 0 155 58" fill="none" xmlns="http://www.w3.org/2000/svg">
<path d="M65.06 43.58C62.4333 43.58 60.2933 43 58.64 41.84C56.9867 40.68 55.9733 39.0467 55.6 36.94L59.88 36.28C60.1467 37.4 60.76 38.2867 61.72 38.94C62.6933 39.58 63.9 39.9 65.34 39.9C66.6467 39.9 67.6667 39.6333 68.4 39.1C69.1467 38.5667 69.52 37.8333 69.52 36.9C69.52 36.3533 69.3867 35.9133 69.12 35.58C68.8667 35.2333 68.3267 34.9067 67.5 34.6C66.6733 34.2933 65.4133 33.9133 63.72 33.46C61.8667 32.98 60.3933 32.4667 59.3 31.92C58.22 31.36 57.4467 30.7133 56.98 29.98C56.5267 29.2333 56.3 28.3333 56.3 27.28C56.3 25.9733 56.6467 24.8333 57.34 23.86C58.0333 22.8867 59.0067 22.1333 60.26 21.6C61.5267 21.0667 63.0067 20.8 64.7 20.8C66.3533 20.8 67.8267 21.06 69.12 21.58C70.4133 22.1 71.46 22.84 72.26 23.8C73.06 24.7467 73.54 25.86 73.7 27.14L69.42 27.92C69.2733 26.88 68.7867 26.06 67.96 25.46C67.1333 24.86 66.06 24.5333 64.74 24.48C63.4733 24.4267 62.4467 24.64 61.66 25.12C60.8733 25.5867 60.48 26.2333 60.48 27.06C60.48 27.54 60.6267 27.9467 60.92 28.28C61.2267 28.6133 61.8133 28.9333 62.68 29.24C63.5467 29.5467 64.8267 29.9133 66.52 30.34C68.3333 30.8067 69.7733 31.3267 70.84 31.9C71.9067 32.46 72.6667 33.1333 73.12 33.92C73.5867 34.6933 73.82 35.6333 73.82 36.74C73.82 38.8733 73.04 40.5467 71.48 41.76C69.9333 42.9733 67.7933 43.58 65.06 43.58ZM84.3453 43.6C82.7453 43.6 81.4053 43.3067 80.3253 42.72C79.2453 42.12 78.4253 41.3333 77.8653 40.36C77.3186 39.3733 77.0453 38.2933 77.0453 37.12C77.0453 36.0267 77.2386 35.0667 77.6253 34.24C78.012 33.4133 78.5853 32.7133 79.3453 32.14C80.1053 31.5533 81.0386 31.08 82.1453 30.72C83.1053 30.44 84.192 30.1933 85.4053 29.98C86.6186 29.7667 87.892 29.5667 89.2253 29.38C90.572 29.1933 91.9053 29.0067 93.2253 28.82L91.7053 29.66C91.732 27.9667 91.372 26.7133 90.6253 25.9C89.892 25.0733 88.6253 24.66 86.8253 24.66C85.692 24.66 84.652 24.9267 83.7053 25.46C82.7586 25.98 82.0986 26.8467 81.7253 28.06L77.8253 26.86C78.3586 25.0067 79.372 23.5333 80.8653 22.44C82.372 21.3467 84.372 20.8 86.8653 20.8C88.7986 20.8 90.4786 21.1333 91.9053 21.8C93.3453 22.4533 94.3986 23.4933 95.0653 24.92C95.412 25.6267 95.6253 26.3733 95.7053 27.16C95.7853 27.9467 95.8253 28.7933 95.8253 29.7V43H92.1253V38.06L92.8453 38.7C91.952 40.3533 90.812 41.5867 89.4253 42.4C88.052 43.2 86.3586 43.6 84.3453 43.6ZM85.0853 40.18C86.272 40.18 87.292 39.9733 88.1453 39.56C88.9986 39.1333 89.6853 38.5933 90.2053 37.94C90.7253 37.2867 91.0653 36.6067 91.2253 35.9C91.452 35.26 91.5786 34.54 91.6053 33.74C91.6453 32.94 91.6653 32.3 91.6653 31.82L93.0253 32.32C91.7053 32.52 90.5053 32.7 89.4253 32.86C88.3453 33.02 87.3653 33.18 86.4853 33.34C85.6186 33.4867 84.8453 33.6667 84.1653 33.88C83.592 34.08 83.0786 34.32 82.6253 34.6C82.1853 34.88 81.832 35.22 81.5653 35.62C81.312 36.02 81.1853 36.5067 81.1853 37.08C81.1853 37.64 81.3253 38.16 81.6053 38.64C81.8853 39.1067 82.312 39.48 82.8853 39.76C83.4586 40.04 84.192 40.18 85.0853 40.18ZM101.419 17.86V13.8H105.599V17.86H101.419ZM101.419 43V21.4H105.599V43H101.419ZM112.005 43V13.6H116.185V43H112.005ZM131.571 43.6C129.411 43.6 127.537 43.1133 125.951 42.14C124.364 41.1667 123.137 39.8267 122.271 38.12C121.417 36.4 120.991 34.42 120.991 32.18C120.991 29.9267 121.431 27.9467 122.311 26.24C123.191 24.52 124.424 23.1867 126.011 22.24C127.597 21.28 129.451 20.8 131.571 20.8C133.731 20.8 135.604 21.2867 137.191 22.26C138.777 23.2333 140.004 24.5733 140.871 26.28C141.737 27.9867 142.171 29.9533 142.171 32.18C142.171 34.4333 141.731 36.42 140.851 38.14C139.984 39.8467 138.757 41.1867 137.171 42.16C135.584 43.12 133.717 43.6 131.571 43.6ZM131.571 39.66C133.637 39.66 135.177 38.9667 136.191 37.58C137.217 36.18 137.731 34.38 137.731 32.18C137.731 29.9267 137.211 28.1267 136.171 26.78C135.144 25.42 133.611 24.74 131.571 24.74C130.171 24.74 129.017 25.06 128.111 25.7C127.204 26.3267 126.531 27.2 126.091 28.32C125.651 29.4267 125.431 30.7133 125.431 32.18C125.431 34.4467 125.951 36.26 126.991 37.62C128.031 38.98 129.557 39.66 131.571 39.66ZM146.504 43V38.58H150.924V43H146.504Z" fill="white"/>
<g clip-path="url(#clip0_7_64)">
<path d="M19.7813 45.4122V46.4166H19.7327V46.4508H4.64154L4.88942 45.2513C4.93316 45.0319 4.9769 44.8222 5.0255 44.6272C5.07411 44.4322 5.12271 44.2371 5.17617 44.047L5.20533 43.9397L5.23449 43.8373L5.36571 43.3985C5.39973 43.2814 5.43863 43.1596 5.48237 43.0425C5.52611 42.9255 5.5747 42.7792 5.62331 42.6476C5.67191 42.5159 5.74968 42.3111 5.81773 42.16C5.88577 42.0088 5.93436 41.8723 6.00241 41.726C6.02671 41.6627 6.05588 41.6041 6.08504 41.5456C6.14822 41.4042 6.20655 41.2775 6.26973 41.1556L6.34263 40.9995C6.40581 40.8679 6.47386 40.7362 6.5419 40.6143C6.60995 40.4925 6.59537 40.5071 6.63425 40.4388C6.72174 40.273 6.80435 40.1267 6.88698 39.9902C6.9696 39.8537 7.04738 39.7172 7.13972 39.5758L7.16888 39.5222C7.1976 39.4834 7.22358 39.4427 7.24665 39.4003L7.28552 39.3466C7.37301 39.2052 7.47021 39.0541 7.57228 38.9127C7.67434 38.7713 7.80071 38.5811 7.93193 38.4251C8.06316 38.2691 8.11178 38.1813 8.23328 38.0253L8.25758 37.996L8.37422 37.8497C8.47142 37.7278 8.5735 37.6011 8.68528 37.4743L8.74847 37.4011C8.86026 37.2744 8.96718 37.1476 9.08383 37.0257L9.19076 36.9135C9.3074 36.7819 9.43377 36.6502 9.59902 36.4845C10.8325 35.2443 12.2448 34.1973 13.7886 33.3785H6.33777C2.28483 37.4909 0.0141155 43.0423 0.0194184 48.8253V51.1024H24.2284V31.2721V11.8808H24.2867H25.288H39.3827L39.1349 13.0851C38.2944 17.1717 36.0302 20.8243 32.7485 23.3878H39.1203C40.3982 21.8053 41.4486 20.0508 42.2406 18.1755C43.385 15.4634 43.9766 12.5488 43.9805 9.60369V7.33154H19.7813V45.4122Z" fill="#FF5E14"/>
<path d="M4.53949 26.723V11.6419L5.73511 11.8808C9.10355 12.5542 12.1962 14.2175 14.6197 16.6592C14.7849 16.825 14.9502 17.0005 15.1057 17.176V11.1299C13.7777 10.1732 12.3482 9.36702 10.8433 8.72611C8.13973 7.58047 5.23371 6.99343 2.2989 7.00006H0V29.9167H15.1106V26.7084H4.53949V26.723Z" fill="#FF5E14"/>
<path d="M39.1203 29.9315V46.3388L37.9295 46.1048C34.5601 45.4331 31.4659 43.7715 29.0401 41.3313L28.8846 41.1753V47.0995C32.5505 49.64 36.9005 51.0006 41.356 51.0002H43.6501V26.7231H28.9137V29.9315H39.1203Z" fill="#FF5E14"/>
</g>
<defs>
<clipPath id="clip0_7_64">
<rect width="44" height="44" fill="white" transform="translate(0 7)"/>
</clipPath>
</defs>
</svg>
