<?xml version="1.0" standalone="no"?>
<!DOCTYPE svg PUBLIC "-//W3C//DTD SVG 20010904//EN"
 "http://www.w3.org/TR/2001/REC-SVG-20010904/DTD/svg10.dtd">
<svg version="1.0" xmlns="http://www.w3.org/2000/svg"
 width="1552.000000pt" height="1078.000000pt" viewBox="0 0 1552.000000 1078.000000"
 preserveAspectRatio="xMidYMid meet">

<g transform="translate(0.000000,1078.000000) scale(0.100000,-0.100000)"
fill="#000000" stroke="none">
<path d="M8146 10372 c-57 -94 -67 -121 -389 -987 -168 -451 -477 -1280 -686
-1843 -210 -562 -381 -1031 -381 -1041 0 -11 6 -21 14 -24 14 -6 27 25 269
678 55 149 110 297 122 330 13 33 55 146 93 250 39 105 168 451 287 770 119
319 276 742 350 940 74 198 186 499 249 669 64 171 114 311 112 314 -2 2 -20
-24 -40 -56z"/>
<path d="M4760 8351 c-118 -9 -170 -41 -205 -126 -14 -32 -18 -102 -25 -419
-22 -974 -32 -1572 -28 -1694 l3 -133 226 293 c125 161 369 476 542 700 173
224 317 417 321 430 3 13 6 192 6 399 0 313 -3 384 -15 420 -19 53 -47 84
-100 111 -37 19 -60 21 -340 23 -165 2 -338 0 -385 -4z"/>
<path d="M11785 8334 c-356 -35 -613 -102 -860 -225 -312 -155 -533 -379 -694
-704 -114 -231 -147 -362 -144 -585 4 -456 155 -788 473 -1045 120 -97 234
-158 495 -267 477 -199 934 -357 1449 -503 152 -42 212 -71 277 -132 99 -93
131 -217 89 -354 -61 -205 -208 -330 -446 -381 -143 -31 -480 -30 -674 1 -467
75 -806 184 -1192 384 -153 79 -188 86 -269 50 -180 -80 -349 -412 -353 -693
-1 -93 2 -111 23 -152 13 -26 38 -60 55 -76 36 -35 310 -194 441 -256 413
-198 940 -299 1565 -299 521 -1 927 79 1252 245 459 234 724 568 824 1037 34
160 44 461 20 601 -45 255 -170 492 -363 686 -229 229 -568 376 -1458 628
-456 130 -505 145 -606 196 -139 70 -270 186 -312 277 -16 37 -22 67 -22 128
0 70 4 89 32 148 65 137 208 243 380 284 120 28 503 25 666 -5 354 -65 695
-170 961 -295 105 -49 116 -52 191 -52 101 0 134 15 230 109 151 148 225 307
233 501 3 94 1 118 -17 166 -62 164 -187 260 -473 363 -237 86 -507 153 -758
190 -307 45 -732 58 -1015 30z"/>
<path d="M855 8281 c-48 -22 -79 -54 -100 -103 -13 -33 -15 -289 -15 -2395 0
-2266 1 -2360 19 -2398 22 -50 69 -91 119 -105 22 -6 176 -10 384 -10 323 0
351 1 401 20 58 22 98 57 119 105 11 24 13 323 15 1570 0 847 2 1550 2 1563 1
13 5 20 11 17 5 -3 62 -83 127 -178 64 -95 340 -498 613 -897 273 -399 673
-984 890 -1300 216 -316 424 -618 461 -671 123 -174 172 -198 382 -191 81 2
60 -33 193 327 110 298 240 648 429 1152 107 286 129 353 116 356 -32 7 -526
-6 -535 -14 -5 -5 -9 -135 -8 -303 1 -174 -2 -297 -8 -301 -13 -8 -42 33 -682
968 -29 43 -78 113 -108 157 -30 44 -79 114 -108 157 -30 43 -162 236 -294
428 -213 310 -339 494 -583 850 -477 694 -743 1077 -773 1108 -21 21 -57 51
-82 65 -44 26 -52 27 -250 34 -113 3 -315 6 -450 7 -218 0 -249 -1 -285 -18z"/>
<path d="M7549 8253 c-11 -27 -29 -70 -39 -98 -52 -143 -97 -265 -190 -515
-56 -151 -108 -294 -116 -317 l-13 -42 702 -4 c636 -3 708 -5 761 -21 150 -45
283 -133 366 -242 97 -129 142 -263 142 -424 -1 -303 -192 -559 -490 -653 -64
-20 -90 -21 -552 -24 -267 -2 -495 -5 -507 -8 -14 -3 -167 -181 -418 -484
-217 -264 -395 -482 -395 -486 0 -3 532 -4 1183 -2 l1182 3 85 22 c384 102
653 295 824 592 79 136 153 331 139 366 -4 11 -29 57 -56 104 -158 268 -206
454 -207 799 0 264 34 420 136 623 24 48 44 99 44 113 0 47 -88 191 -189 310
-188 219 -491 388 -764 424 -49 7 -364 11 -843 11 l-765 0 -20 -47z"/>
<path d="M7737 6387 c-28 -14 -103 -101 -302 -348 -304 -377 -332 -412 -1169
-1424 -566 -683 -1534 -1848 -1997 -2400 -101 -121 -204 -250 -228 -288 -24
-37 -47 -67 -51 -67 -10 0 -34 -59 -27 -66 9 -9 194 210 1173 1386 687 825
805 967 1184 1426 90 109 239 289 330 399 290 349 569 691 826 1010 280 347
308 384 303 388 -2 2 -21 -6 -42 -16z"/>
<path d="M4243 5337 c-23 -7 -48 -18 -55 -24 -10 -10 97 -13 531 -13 l542 0
-6 -22 -7 -23 22 22 c27 25 21 49 -15 63 -38 15 -958 11 -1012 -3z"/>
<path d="M13132 2509 c-146 -16 -223 -73 -280 -210 -40 -96 -53 -154 -55 -249
-3 -100 8 -143 45 -185 44 -51 114 -70 258 -69 136 0 212 19 266 66 45 39 100
147 125 246 21 83 26 233 8 279 -25 66 -89 103 -204 118 -27 3 -57 7 -65 9 -8
2 -52 -1 -98 -5z m94 -265 c22 -21 25 -31 20 -62 -14 -78 -40 -143 -64 -163
-53 -41 -113 -34 -133 17 -13 36 32 179 67 212 34 30 78 29 110 -4z"/>
<path d="M1930 2501 c-72 -11 -107 -27 -153 -70 -72 -68 -103 -250 -54 -322
28 -42 71 -58 163 -58 46 -1 77 -6 90 -16 19 -15 19 -15 -1 -31 -17 -14 -42
-15 -167 -11 -106 4 -150 2 -157 -6 -12 -15 -34 -135 -27 -152 6 -15 228 -39
373 -39 93 0 106 3 160 30 50 25 62 37 87 87 24 47 30 74 34 141 4 80 3 84
-25 115 -33 37 -79 50 -184 51 -77 0 -101 16 -70 44 17 15 35 17 163 10 116
-5 145 -4 154 7 14 17 53 188 45 193 -36 23 -335 41 -431 27z"/>
<path d="M2615 2500 c-108 -10 -163 -49 -206 -145 -18 -40 -23 -69 -24 -142 0
-83 2 -94 24 -117 31 -33 78 -46 167 -46 54 0 75 -4 85 -16 11 -14 10 -18 -6
-31 -17 -12 -45 -14 -167 -9 -168 8 -156 14 -178 -92 -8 -37 -9 -67 -4 -72 13
-12 228 -32 359 -33 121 -1 166 11 218 61 55 52 72 98 72 199 0 82 -2 94 -24
117 -27 29 -94 46 -184 46 -34 0 -69 5 -77 10 -13 9 -11 13 9 31 23 18 33 19
162 13 101 -5 142 -4 153 5 7 6 19 42 26 79 7 37 17 77 21 90 12 31 -10 38
-152 51 -122 12 -164 12 -274 1z"/>
<path d="M5683 2501 c-138 -22 -225 -136 -269 -351 -19 -98 -15 -200 10 -253
26 -53 84 -84 182 -98 149 -21 297 4 367 62 75 61 135 219 144 376 5 83 3 111
-11 148 -20 52 -62 91 -114 104 -53 14 -248 21 -309 12z m153 -257 c28 -28 28
-43 -2 -143 -19 -66 -77 -125 -114 -116 -39 9 -71 51 -64 83 23 101 47 163 71
181 36 29 78 27 109 -5z"/>
<path d="M9487 2501 c-85 -12 -146 -53 -179 -121 -30 -59 -52 -180 -42 -229
14 -68 76 -101 190 -101 38 0 67 -5 80 -15 19 -15 19 -15 -1 -31 -17 -13 -45
-15 -169 -12 l-148 3 -20 -79 c-15 -60 -17 -80 -8 -86 26 -16 359 -43 425 -35
59 8 131 38 162 66 54 51 87 198 61 273 -19 58 -57 76 -172 83 -114 7 -128 13
-101 43 19 21 26 22 170 19 l149 -4 23 99 c13 54 22 100 20 102 -19 19 -347
38 -440 25z"/>
<path d="M10185 2501 c-52 -9 -113 -42 -146 -78 -81 -87 -137 -276 -127 -426
9 -134 58 -179 218 -199 186 -23 330 19 395 114 40 58 84 191 95 286 16 144
-15 243 -87 277 -62 30 -247 43 -348 26z m149 -252 c31 -24 34 -59 10 -140
-18 -59 -35 -84 -76 -105 -37 -19 -64 -18 -88 6 -26 26 -25 57 2 143 36 110
90 145 152 96z"/>
<path d="M14590 2504 c-172 -30 -208 -62 -244 -221 -22 -97 -20 -134 7 -174
28 -42 71 -58 163 -58 46 -1 77 -6 90 -16 19 -15 19 -15 -1 -31 -17 -14 -42
-15 -168 -11 -132 5 -148 4 -156 -12 -15 -27 -33 -143 -24 -151 13 -13 226
-33 353 -34 96 0 122 3 160 20 93 43 142 128 144 250 2 112 -35 143 -179 151
-112 7 -127 13 -100 43 18 20 25 21 160 14 114 -5 142 -4 151 7 11 13 56 190
51 195 -16 16 -347 39 -407 28z"/>
<path d="M666 2482 c-4 -7 -156 -654 -156 -666 0 -13 227 -6 238 7 5 6 24 74
42 150 17 75 33 137 35 137 7 0 37 -114 50 -193 8 -44 20 -86 26 -93 16 -19
251 -20 267 -1 8 9 87 339 150 625 l10 42 -113 0 c-94 0 -114 -3 -127 -17 -8
-10 -30 -83 -48 -163 -18 -80 -36 -149 -40 -153 -7 -8 -19 58 -41 223 -6 47
-15 91 -21 97 -12 14 -263 19 -272 5z"/>
<path d="M1430 2475 c-7 -8 -27 -81 -46 -162 -18 -82 -49 -220 -69 -308 -19
-88 -38 -168 -41 -177 -5 -16 5 -18 115 -18 114 0 121 1 135 23 8 12 28 85 45
162 36 164 96 428 106 468 l7 27 -120 0 c-94 0 -122 -3 -132 -15z"/>
<path d="M3148 2473 c-18 -20 -162 -639 -153 -654 9 -14 230 -12 243 4 6 6 17
46 26 87 8 41 40 181 71 312 30 130 55 243 55 252 0 14 -16 16 -113 16 -96 0
-116 -3 -129 -17z"/>
<path d="M4781 2468 c-21 -60 -143 -627 -138 -642 5 -13 23 -16 104 -16 115 0
137 10 148 67 14 80 20 83 158 83 142 0 184 10 233 52 45 40 61 71 79 159 24
111 24 228 1 262 -35 52 -65 57 -332 57 -244 0 -244 0 -253 -22z m316 -193
c29 -8 39 -46 23 -85 -13 -31 -40 -43 -119 -54 l-44 -7 7 48 c7 54 28 90 59
103 22 8 30 8 74 -5z"/>
<path d="M6195 2478 c-3 -7 -4 -159 -3 -338 l3 -325 138 -3 c75 -1 145 2 155
7 13 7 31 57 62 168 24 87 47 162 52 168 10 11 9 -121 -1 -230 -11 -117 -14
-115 137 -115 87 0 133 4 144 13 14 11 257 570 278 640 l9 27 -127 0 c-70 0
-133 -4 -140 -9 -12 -7 -102 -262 -117 -332 -4 -16 -10 -31 -15 -34 -10 -6 -4
118 11 259 7 65 7 92 -2 102 -15 19 -222 20 -237 2 -5 -7 -31 -93 -57 -190
-45 -168 -73 -230 -61 -135 3 23 7 107 8 187 l3 145 -118 3 c-89 2 -119 -1
-122 -10z"/>
<path d="M7230 2475 c-10 -12 -63 -226 -115 -470 -8 -38 -21 -96 -29 -127 -7
-32 -11 -60 -8 -63 3 -3 130 -5 282 -5 210 0 280 3 287 13 9 10 43 145 43 168
0 5 -69 9 -154 9 -90 0 -157 4 -161 10 -3 5 -1 19 5 30 10 18 22 20 167 22
l157 3 18 55 c30 96 40 90 -142 90 -147 0 -160 1 -160 18 0 37 19 42 171 42
114 0 149 3 158 14 12 14 51 162 51 192 0 21 -552 21 -570 -1z"/>
<path d="M7902 2478 c-8 -10 -59 -222 -147 -615 -3 -11 -8 -28 -11 -37 -6 -15
7 -16 117 -14 143 3 138 -1 161 121 7 37 15 67 18 67 7 0 52 -73 80 -130 13
-25 28 -48 34 -52 15 -10 274 -10 280 0 2 4 -28 65 -69 135 -40 70 -70 129
-67 131 4 2 25 9 47 16 109 34 147 91 148 219 0 92 -19 136 -68 157 -47 19
-507 21 -523 2z m326 -202 c10 -10 13 -25 8 -51 -8 -41 -37 -58 -113 -68 -39
-5 -43 -3 -43 16 0 42 21 97 43 112 26 19 82 14 105 -9z"/>
<path d="M10771 2477 c-15 -19 -152 -606 -149 -637 l3 -25 227 -3 c227 -2 227
-2 242 20 12 21 56 188 56 217 0 7 -37 11 -116 11 -105 0 -115 2 -110 18 3 9
24 98 46 197 22 99 43 188 46 198 5 15 -5 17 -114 17 -88 0 -123 -4 -131 -13z"/>
<path d="M11282 2478 c-9 -12 -60 -222 -107 -441 -20 -90 -15 -134 21 -177 79
-93 408 -88 518 9 27 23 47 67 68 146 19 72 108 459 108 469 0 3 -54 6 -119 6
-85 0 -122 -4 -128 -12 -4 -7 -18 -58 -30 -113 -78 -347 -82 -357 -136 -369
-23 -5 -29 -2 -39 19 -10 21 -4 60 37 238 26 116 50 218 52 225 4 9 -23 12
-115 12 -84 0 -123 -4 -130 -12z"/>
<path d="M11942 2478 c-8 -12 -52 -185 -52 -209 0 -5 34 -9 75 -9 41 0 75 -1
75 -3 0 -8 -40 -191 -66 -298 -15 -64 -24 -124 -21 -133 6 -14 22 -16 119 -14
109 3 113 4 125 28 6 14 28 99 48 190 20 91 39 173 41 182 10 34 34 48 83 48
26 0 55 6 64 13 9 7 26 49 37 97 12 47 23 93 26 103 5 16 -12 17 -269 17 -208
0 -277 -3 -285 -12z"/>
<path d="M12563 2478 c-6 -7 -24 -76 -42 -153 -17 -77 -38 -167 -46 -200 -27
-113 -53 -230 -60 -272 l-7 -43 114 0 c62 0 119 4 127 9 15 9 165 647 155 662
-9 14 -230 11 -241 -3z"/>
<path d="M13653 2478 c-14 -19 -155 -646 -148 -658 7 -12 204 -13 223 -1 8 4
27 66 43 137 35 151 38 159 45 151 9 -9 33 -108 45 -182 18 -114 18 -115 158
-115 100 0 120 3 133 18 12 13 159 621 158 655 0 13 -227 8 -238 -6 -6 -7 -25
-77 -42 -157 -17 -80 -34 -152 -37 -160 -9 -26 -20 18 -37 155 -25 190 -11
175 -165 175 -91 0 -131 -4 -138 -12z"/>
<path d="M2338 1065 c-36 -20 -58 -64 -58 -114 0 -57 12 -81 73 -150 78 -87
101 -181 41 -169 -10 2 -21 17 -26 36 -10 39 -30 49 -64 34 -20 -10 -24 -19
-24 -53 0 -33 6 -47 34 -75 29 -29 41 -34 79 -34 25 0 57 4 71 10 57 21 84
120 52 193 -7 18 -37 58 -65 90 -69 79 -85 111 -69 137 17 26 19 26 55 -15 39
-43 79 -48 89 -10 8 31 -10 76 -41 105 -31 29 -108 37 -147 15z"/>
<path d="M4758 1062 c-50 -30 -72 -113 -48 -176 5 -14 34 -52 64 -85 77 -84
101 -177 44 -169 -16 2 -24 11 -26 30 -4 35 -24 50 -59 46 -26 -3 -28 -7 -31
-50 -3 -40 1 -51 26 -79 24 -27 37 -33 85 -37 68 -5 101 12 123 63 33 80 12
146 -76 242 -65 71 -80 104 -59 129 20 25 53 13 59 -21 5 -27 9 -30 45 -30 36
0 40 3 43 27 5 38 -26 96 -59 113 -37 20 -98 18 -131 -3z"/>
<path d="M5172 1067 c-13 -7 -32 -27 -43 -43 -17 -26 -19 -48 -19 -214 0 -167
2 -188 20 -218 23 -37 54 -52 110 -52 50 0 85 16 107 49 15 22 19 54 21 196 4
185 -3 227 -43 265 -30 28 -117 38 -153 17z m94 -114 c21 -48 17 -281 -5 -306
-17 -21 -25 -21 -45 -1 -24 23 -23 299 1 326 23 26 32 23 49 -19z"/>
<path d="M7063 1061 c-48 -30 -55 -69 -51 -279 l3 -184 33 -29 c27 -24 41 -29
86 -29 62 0 100 24 122 76 19 46 20 342 0 387 -21 50 -50 70 -109 74 -40 3
-60 -1 -84 -16z m95 -83 c8 -8 12 -60 12 -169 0 -131 -3 -159 -16 -170 -11 -9
-20 -10 -32 -2 -14 9 -17 33 -20 163 -2 132 0 155 14 171 20 22 26 23 42 7z"/>
<path d="M7923 1060 c-40 -24 -58 -79 -48 -146 5 -39 16 -57 60 -103 61 -66
87 -112 83 -149 -4 -35 -38 -36 -55 -2 -14 28 -40 50 -60 50 -7 0 -19 -10 -28
-23 -20 -32 -4 -88 36 -121 24 -21 41 -26 83 -26 81 0 126 46 126 130 0 59
-20 99 -89 175 -55 60 -62 72 -59 104 4 48 29 52 50 8 17 -37 62 -55 86 -35
30 25 1 112 -47 141 -39 23 -99 21 -138 -3z"/>
<path d="M10059 1066 c-50 -29 -59 -67 -59 -258 0 -190 9 -230 60 -255 38 -19
110 -16 147 7 44 27 53 67 53 253 0 167 -8 204 -49 241 -28 25 -116 32 -152
12z m91 -95 c5 -11 10 -85 10 -169 0 -125 -3 -152 -16 -163 -14 -11 -19 -10
-35 10 -17 20 -19 41 -19 160 0 107 3 141 16 159 19 27 30 28 44 3z"/>
<path d="M14144 1047 c-30 -28 -37 -42 -41 -83 -7 -66 11 -103 86 -187 49 -54
61 -75 61 -101 0 -19 -7 -39 -15 -46 -12 -10 -18 -6 -36 24 -27 46 -52 60 -79
46 -15 -8 -20 -21 -20 -51 0 -33 6 -47 34 -75 29 -29 41 -34 80 -34 87 0 136
47 136 130 0 57 -20 99 -78 163 -71 79 -85 102 -78 132 5 18 13 25 31 25 19 0
26 -7 33 -32 7 -27 14 -34 38 -36 66 -7 71 72 8 127 -50 45 -110 44 -160 -2z"/>
<path d="M728 824 c-2 -135 0 -254 4 -265 8 -22 57 -26 76 -7 9 9 12 78 12
249 0 131 -3 244 -6 253 -4 11 -19 16 -45 16 l-38 0 -3 -246z"/>
<path d="M997 1063 c-13 -12 -8 -498 5 -511 16 -16 53 -15 66 1 7 8 13 69 14
148 l3 134 17 -55 c9 -30 26 -91 38 -135 25 -92 33 -105 69 -105 52 0 52 -2
49 271 l-3 254 -35 0 -35 0 -5 -120 -5 -120 -17 55 c-10 30 -23 78 -29 105
-19 80 -24 85 -78 85 -26 0 -51 -3 -54 -7z"/>
<path d="M1445 1057 c-3 -7 -4 -125 -3 -262 l3 -250 30 -3 c16 -2 59 -1 94 3
52 6 70 12 93 35 l28 28 0 191 c0 206 -5 233 -51 257 -36 18 -187 20 -194 1z
m144 -81 c8 -9 11 -64 9 -171 -3 -132 -6 -159 -19 -168 -9 -6 -24 -7 -33 -4
-14 6 -16 28 -16 175 0 93 3 172 7 175 11 12 40 8 52 -7z"/>
<path d="M1870 836 c0 -231 0 -235 23 -262 28 -32 108 -44 156 -24 62 25 66
41 66 290 l0 225 -40 0 -40 0 -6 -215 c-3 -118 -6 -216 -7 -217 -1 -2 -15 -3
-32 -3 l-30 0 0 204 c0 112 -3 211 -6 220 -4 11 -19 16 -45 16 l-39 0 0 -234z"/>
<path d="M2680 1031 c0 -39 1 -40 38 -43 l37 -3 3 -209 c1 -134 6 -214 13
-223 14 -16 51 -17 67 -1 9 9 12 73 12 225 l0 213 28 0 c38 0 63 28 51 58 -8
21 -13 22 -129 22 l-120 0 0 -39z"/>
<path d="M3097 1063 c-4 -3 -7 -117 -7 -253 0 -260 2 -270 46 -270 37 0 56 27
49 71 -7 41 2 118 16 140 8 11 13 10 29 -10 16 -18 20 -38 20 -95 0 -90 13
-111 61 -102 l35 6 -4 98 c-2 58 -9 112 -19 134 -14 33 -14 38 1 59 11 16 16
45 16 86 0 115 -31 143 -158 143 -43 0 -82 -3 -85 -7z m151 -152 c-3 -39 -7
-47 -25 -49 -40 -6 -56 73 -22 114 10 13 14 12 31 -3 14 -13 18 -28 16 -62z"/>
<path d="M3527 1064 c-4 -4 -7 -121 -7 -260 l0 -254 27 -6 c57 -15 58 -11 58
267 l0 254 -35 3 c-20 2 -39 0 -43 -4z"/>
<path d="M3862 1061 c-8 -5 -29 -100 -55 -255 -44 -267 -44 -270 13 -264 19 2
27 11 35 40 13 48 26 60 61 56 23 -2 31 -10 39 -38 5 -19 14 -41 18 -47 9 -15
45 -17 65 -4 14 8 14 5 -44 386 -9 61 -21 116 -27 123 -11 14 -85 16 -105 3z
m62 -232 c4 -39 10 -77 13 -85 4 -10 -4 -14 -27 -14 -32 0 -32 1 -27 38 3 20
9 61 13 89 3 29 10 51 14 48 4 -2 11 -37 14 -76z"/>
<path d="M4210 822 c0 -301 -7 -284 125 -280 97 3 113 13 101 61 -6 24 -11 26
-64 29 l-57 3 -6 215 c-3 118 -6 216 -7 218 -1 1 -22 2 -47 2 l-45 0 0 -248z"/>
<path d="M5540 811 c0 -227 2 -260 16 -265 29 -11 189 -7 202 6 15 15 15 51 0
66 -7 7 -38 12 -70 12 l-58 0 0 220 0 220 -45 0 -45 0 0 -259z"/>
<path d="M5924 1055 c-8 -21 1 -446 10 -466 12 -28 62 -49 115 -49 42 0 56 5
83 29 l33 29 3 237 3 236 -43 -3 -43 -3 -5 -200 c-3 -135 -9 -207 -17 -220
-13 -20 -13 -20 -33 4 -19 21 -20 38 -20 222 l0 199 -40 0 c-27 0 -43 -5 -46
-15z"/>
<path d="M6325 1050 c-12 -37 3 -59 43 -62 l37 -3 5 -214 c5 -233 8 -241 62
-228 36 9 39 32 37 244 -1 101 2 188 7 193 5 5 23 10 39 12 27 3 30 7 30 38
l0 35 -127 3 c-120 2 -127 1 -133 -18z"/>
<path d="M6752 1058 c-9 -9 -12 -79 -12 -253 0 -258 1 -265 50 -265 49 0 50 8
50 261 0 131 -3 244 -6 253 -7 19 -64 22 -82 4z"/>
<path d="M7438 828 c-2 -134 -2 -251 0 -260 5 -21 35 -32 62 -23 19 6 20 15
20 143 0 80 4 132 9 127 9 -10 54 -154 66 -213 4 -18 13 -39 22 -47 18 -19 70
-19 80 -1 4 8 7 128 5 266 l-3 251 -37 -3 -37 -3 -5 -125 -5 -125 -23 90 c-45
182 -35 165 -96 165 l-54 0 -4 -242z"/>
<path d="M8677 1064 c-4 -4 -7 -121 -7 -260 l0 -254 23 -5 c12 -3 63 -5 112
-3 l90 3 0 40 0 40 -60 5 c-59 5 -59 5 -67 41 -4 20 -4 49 1 65 6 25 14 30 54
38 51 9 66 30 47 66 -8 15 -21 20 -50 20 -44 0 -60 18 -60 67 0 47 19 62 80
65 l55 3 0 35 0 35 -106 3 c-58 1 -108 -1 -112 -4z"/>
<path d="M9068 828 c-2 -134 0 -253 4 -265 5 -15 15 -23 31 -23 42 0 47 16 47
149 0 68 2 122 4 120 3 -2 12 -56 21 -119 20 -137 27 -152 63 -148 37 4 49 35
63 161 7 59 15 107 19 107 4 0 5 -51 2 -113 -5 -126 3 -157 43 -157 48 0 50 9
48 266 -1 131 -2 245 -2 252 -1 8 -20 12 -61 12 -54 0 -60 -2 -65 -22 -7 -32
-25 -152 -32 -220 -3 -32 -10 -58 -14 -58 -5 0 -9 5 -9 10 0 43 -34 268 -42
278 -6 7 -33 12 -64 12 l-53 0 -3 -242z"/>
<path d="M9597 1063 c-13 -12 -8 -498 5 -511 15 -15 65 -16 74 -1 3 6 6 48 5
93 -1 44 3 87 8 95 5 7 30 17 57 22 62 12 81 31 93 96 15 78 0 151 -38 185
-29 26 -38 28 -114 28 -46 0 -87 -3 -90 -7z m137 -89 c35 -34 13 -134 -30
-134 -11 0 -14 17 -14 75 0 79 10 93 44 59z"/>
<path d="M10414 1056 c-3 -8 1 -73 10 -143 8 -70 20 -177 26 -238 8 -81 15
-113 27 -122 19 -15 71 -17 92 -4 12 8 28 115 30 204 1 15 5 27 10 27 5 0 15
-48 22 -106 7 -61 19 -113 27 -120 17 -18 76 -18 91 -1 9 12 25 138 56 460 l6
57 -39 0 -40 0 -12 -117 c-20 -199 -24 -205 -39 -53 -16 177 -13 170 -66 170
-24 0 -46 -4 -49 -9 -3 -4 -11 -72 -17 -150 -7 -77 -15 -141 -20 -141 -4 0
-10 57 -14 128 -9 160 -14 172 -60 172 -22 0 -38 -6 -41 -14z"/>
<path d="M10970 817 c0 -183 3 -256 12 -265 8 -8 45 -12 99 -12 98 0 122 12
117 59 -3 24 -7 26 -58 29 -30 2 -60 8 -67 14 -7 6 -13 32 -13 59 0 57 20 83
58 76 41 -8 52 2 52 44 l0 39 -44 0 c-55 0 -68 15 -64 77 l3 48 68 3 c66 3 67
3 67 30 0 46 -15 52 -127 52 l-103 0 0 -253z"/>
<path d="M11366 1054 c-3 -9 -6 -122 -6 -253 0 -171 3 -240 12 -249 15 -15 65
-16 73 -1 4 6 8 50 9 99 1 98 11 119 45 101 18 -10 21 -21 22 -84 2 -110 7
-122 54 -122 l40 0 3 70 c2 38 -4 101 -13 141 -14 63 -14 74 0 100 28 54 12
155 -30 192 -23 19 -37 22 -114 22 -72 0 -90 -3 -95 -16z m135 -74 c15 -8 19
-21 19 -60 0 -39 -4 -52 -19 -60 -36 -19 -41 -12 -41 60 0 72 5 79 41 60z"/>
<path d="M11802 1058 c-9 -9 -12 -78 -12 -249 0 -205 2 -240 16 -254 13 -13
35 -15 112 -13 93 3 96 4 103 28 11 47 -5 60 -76 60 l-65 0 0 58 c0 31 4 63 9
71 5 7 29 15 54 18 48 6 61 22 50 63 -4 16 -14 20 -47 20 -50 0 -66 13 -66 54
0 70 6 76 76 76 l64 0 0 40 0 40 -103 0 c-67 0 -107 -4 -115 -12z"/>
<path d="M12192 813 c3 -255 3 -258 25 -269 28 -14 148 1 181 22 38 25 45 60
45 239 2 246 -10 265 -168 265 l-85 0 2 -257z m146 155 c8 -8 12 -58 12 -159
0 -142 -1 -148 -22 -164 -40 -27 -48 0 -48 165 0 144 5 170 35 170 6 0 16 -5
23 -12z"/>
<path d="M12736 1054 c-10 -25 -6 -415 4 -459 12 -54 34 -68 93 -60 128 16
159 47 161 157 1 61 -3 78 -22 105 l-22 32 20 33 c35 58 19 156 -31 192 -33
23 -194 23 -203 0z m135 -74 c39 -21 16 -132 -25 -117 -12 5 -16 20 -16 67 0
62 5 68 41 50z m10 -220 c15 -8 19 -21 19 -60 0 -44 -3 -51 -29 -64 -16 -9
-31 -12 -35 -9 -8 8 -8 106 0 127 7 19 18 20 45 6z"/>
<path d="M13130 1064 c0 -4 18 -63 41 -133 36 -111 42 -141 46 -248 6 -133 12
-147 60 -141 l28 3 6 110 c7 116 18 165 68 308 17 49 31 93 31 98 0 6 -19 9
-42 7 l-41 -3 -27 -79 c-27 -83 -32 -86 -45 -26 -4 19 -14 52 -22 73 -14 35
-18 37 -59 37 -24 0 -44 -3 -44 -6z"/>
<path d="M13683 1055 c-11 -30 2 -439 15 -462 27 -49 122 -69 180 -39 53 27
57 49 57 290 l0 221 -42 3 -43 3 0 -199 c0 -185 -1 -202 -20 -223 l-20 -24
-20 25 c-19 23 -20 38 -19 211 1 102 -1 191 -5 198 -11 17 -76 14 -83 -4z"/>
<path d="M14550 627 c-40 -14 -51 -45 -25 -71 35 -35 70 -13 77 49 4 34 -6 38
-52 22z"/>
<path d="M8284 606 c-5 -22 10 -134 21 -144 14 -14 34 14 49 72 22 81 18 96
-28 96 -29 0 -37 -4 -42 -24z"/>
</g>
</svg>
