<svg clip-rule="evenodd" fill-rule="evenodd"  fill="#fff" image-rendering="optimizeQuality" shape-rendering="geometricPrecision" text-rendering="geometricPrecision" viewBox="0 0 173.397 173.397"  xmlns="http://www.w3.org/2000/svg" id="fi_11267179"><g id="Layer_x0020_1"><g id="_358753552"><path id="_358753384" d="m162.899 21.1115v131.174h-110.944v-131.174zm-27.6821 99.388v-12.1446h-7.2919v12.1446zm0-41.117v-12.1446h-7.2919v12.1446zm-24.1441 0v-12.1446h-7.2919v12.1446zm0 41.117v-12.1446h-7.2919v12.1446zm-24.1441 0v-12.1446h-7.2919v12.1446zm0-41.117v-12.1446h-7.2919v12.1446zm-12.2323 25.5858h17.1729v-8.4135h-17.1729zm24.1441 0h17.1729v-8.4135h-17.1729zm24.1441 0h17.1729v-8.4135h-17.1729zm-48.2882-41.117h17.1729v-8.4135h-17.1729zm24.1441 0h17.1729v-8.4135h-17.1729zm24.1441 0h17.1729v-8.4135h-17.1729zm23.7634-26.5888h-78.6422v98.8723h78.6422zm-80.3356-3.3868h82.029c.9352 0 1.6934.7582 1.6934 1.6934v102.259c0 .9352-.7582 1.6934-1.6934 1.6934h-82.029c-.9352 0-1.6934-.7582-1.6934-1.6934v-102.259c0-.9352.7582-1.6934 1.6934-1.6934z"></path><path id="_358753744" d="m48.5678 20.2445-38.0692-9.7458v152.4l38.0692-9.7458v-132.908zm-25.2486 58.1953c0-.9352-.7582-1.6934-1.6934-1.6934s-1.6934.7582-1.6934 1.6934v16.5176c0 .9352.7582 1.6934 1.6934 1.6934s1.6934-.7582 1.6934-1.6934z"></path></g></g></svg>