<svg id="fi_15763903" fill="#fff" enable-background="new 0 0 512 512" viewBox="0 0 512 512" xmlns="http://www.w3.org/2000/svg"><path clip-rule="evenodd" d="m102.82 258.48c0-87.3 71.03-158.33 158.33-158.33s158.33 71.03 158.33 158.33-71.03 158.32-158.33 158.32-158.33-71.02-158.33-158.32zm49.76-5.33 40.45-66.99-9.67-5.84-40.45 66.99zm37.53 33.33 12.69-14.44c2.28-2.59 2.02-6.56-.57-8.84-1.19-1.04-2.66-1.55-4.13-1.55-1.74 0-3.47.72-4.71 2.12l-13.03 14.83c-1.09 1.24-1.64 2.86-1.53 4.54.11 1.67.85 3.2 2.1 4.3 2.59 2.28 6.56 2.02 8.84-.57zm18.43 16.19 8.98-10.22c0-.01 0-.01 0-.01l4.04-4.59c2.28-2.6 2.03-6.56-.57-8.84-2.59-2.28-6.56-2.03-8.84.57l-.02-.02c-.11.13-.21.27-.32.4l-12.69 14.45c-1.09 1.25-1.63 2.85-1.52 4.53s.85 3.21 2.1 4.3c2.59 2.28 6.55 2.02 8.84-.57zm19.91 14.49 7.49-8.52c1.09-1.25 1.64-2.86 1.53-4.54s-.86-3.21-2.1-4.3c-2.59-2.28-6.56-2.03-8.84.57l-8.99 10.22c-1.09 1.25-1.64 2.86-1.53 4.54s.86 3.21 2.1 4.3c2.6 2.28 6.56 2.02 8.84-.57l.53-.61.95-1.08c.02-.01.02-.01.02-.01zm18.42 16.2c2.28-2.6 2.02-6.56-.57-8.84-1.19-1.05-2.66-1.56-4.13-1.56-1.74 0-3.47.72-4.71 2.12l-1.3 1.49-.08.09c-2.28 2.6-2.03 6.56.57 8.84 1.25 1.1 2.85 1.65 4.54 1.53 1.68-.11 3.21-.85 4.3-2.1zm19.83 2.28c2.27-2.59 2.03-6.55-.56-8.83 0 0 0-.01-.01-.01l-8.82-7.75c3.53 5.25 4.08 12.01 1.47 17.75 2.69 1.48 5.97 1.06 7.92-1.16zm63.61-50.4-64.97-57.09c-2.05-1.21-2.86-.73-3.18-.54-1.94 1.14-3.41 5.09-3.25 7.51.58 8.54-4.19 18.01-12.15 24.14-7.11 5.47-15.4 7.19-22.76 4.7-1.75-.59-3.13-1.96-3.74-3.7-.61-1.75-.38-3.68.62-5.23 3.88-6.03 2.98-11.92 1.95-18.75-1.43-9.46-3.19-21.19 10.06-31.79-.4.03-.8.07-1.16.1-2.96.28-6.38.6-10.09.6-6.9 0-14.81-1.11-22.68-5.64l-29.01 48.05c6.02 2.02 10.99 4.98 14.5 8.18 6.66-7.49 18.17-8.22 25.71-1.59 3.44 3.03 5.46 7.07 6.02 11.3 4.51-.18 9.09 1.29 12.74 4.5 4.89 4.3 6.91 10.64 5.95 16.63 3.03.61 5.95 1.98 8.44 4.16 6.13 5.39 7.78 14.01 4.64 21.11 2.22.74 4.33 1.92 6.2 3.55-.85-2.05-.53-4.48 1.03-6.26 2.18-2.49 5.98-2.73 8.46-.55l16.2 14.24c1.25 1.1 2.85 1.64 4.54 1.53 1.68-.11 3.21-.85 4.3-2.1 2.26-2.57 2.02-6.52-.53-8.8l-25.57-22.47c-2.49-2.19-2.74-5.98-.55-8.47 2.18-2.49 5.98-2.73 8.47-.54l31.03 27.27c2.59 2.27 6.56 2.02 8.84-.58 2.27-2.59 2.02-6.55-.56-8.83l-30.08-26.43c-2.49-2.19-2.73-5.98-.55-8.47 2.19-2.49 5.98-2.73 8.47-.54l30.06 26.41c0 .01 0 .01.01.01v.01l4.31 3.78c2.59 2.28 6.56 2.03 8.84-.57 2.29-2.59 2.04-6.56-.56-8.84zm8.38-100.7 30.47 72.09 10.4-4.4-30.47-72.08zm-50.15 11.71c-9.77-2.31-18.24-4.32-24.57-1.28-6.73 4.43-11.69 8.78-16.08 12.63-2.4 2.1-4.65 4.08-6.86 5.76-8.54 6.47-7.66 12.3-6.32 21.13.79 5.23 1.71 11.33.21 17.81 2.01-.74 3.63-1.85 4.54-2.55 4.72-3.63 7.8-9.32 7.5-13.83-.42-6.18 2.63-14.82 9.11-18.65 2.83-1.67 8.69-3.77 16.11 1 .25.16.49.34.72.54l60.74 53.37c6.12-3.11 7.78-5.74 9.64-8.73 2.53-4.05 5.13-7.53 11.28-10.57l-23.44-55.45c-15.89 5.14-30.56 1.67-42.58-1.18zm-27.39-84.1c-80.69 0-146.33 65.64-146.33 146.33 0 80.68 65.64 146.32 146.33 146.32 80.68 0 146.32-65.64 146.32-146.32.01-80.69-65.63-146.33-146.32-146.33zm30.16 72.43c-11.7-2.78-22.76-5.4-33.04-.18-.19.1-.38.21-.56.33-4.61 3.01-8.48 6-11.83 8.78-4.45-1.86-9.92-1.36-15.27-.86-7.94.74-16.79 1.55-25.48-3.4 2.07-4.24.6-9.45-3.52-11.93l-14.43-8.71c-2.1-1.27-4.58-1.65-6.97-1.06-2.39.6-4.41 2.08-5.68 4.19l-43.33 71.75c-1.27 2.1-1.65 4.58-1.05 6.98.59 2.39 2.08 4.41 4.18 5.68l14.43 8.71c1.49.9 3.13 1.32 4.75 1.32 3.12 0 6.17-1.58 7.91-4.45l2.12-3.52c6.2 1.62 10.67 4.43 13 6.56l-5.19 5.91c-3.21 3.65-4.81 8.35-4.49 13.23.31 4.88 2.5 9.33 6.15 12.54 3.46 3.05 7.76 4.54 12.05 4.54.24 0 .47-.03.71-.04.58 4.39 2.67 8.37 6.01 11.31 3.46 3.04 7.76 4.53 12.04 4.53.11 0 .22-.01.33-.01.51 4.53 2.62 8.65 6.06 11.67 3.46 3.04 7.76 4.53 12.05 4.53.14 0 .29-.02.43-.02.51 4.32 2.54 8.47 6.05 11.56 3.35 2.94 7.58 4.53 12.02 4.53.4 0 .8-.02 1.21-.04 3.26-.21 6.32-1.28 8.97-3.04 3.38 2.48 7.31 3.71 11.19 3.71 5.06 0 10.04-2.07 13.6-6.12 1.99-2.27 3.31-4.9 3.99-7.66 1.38.33 2.79.52 4.24.52.4 0 .8-.02 1.21-.04 4.88-.32 9.33-2.5 12.54-6.16 2.04-2.31 3.37-5.01 4.03-7.83 1.29.29 2.61.44 3.93.44 5.08 0 10.13-2.09 13.73-6.2 2.23-2.53 3.61-5.52 4.2-8.63.85.13 1.71.2 2.58.2 5.08 0 10.13-2.09 13.73-6.2 5.21-5.93 5.86-14.3 2.26-20.85 6.73-4.07 9.22-8.02 11.29-11.35 1.46-2.34 2.58-4.12 5.79-5.85 1.5 3.46 4.9 5.54 8.46 5.54 1.2 0 2.41-.23 3.58-.73l15.52-6.56c4.68-1.98 6.88-7.4 4.9-12.08l-32.64-77.21c-1.98-4.68-7.4-6.88-12.08-4.9l-15.52 6.56c-4.57 1.94-6.77 7.15-5.02 11.76-12.31 3.65-23.9.91-35.14-1.75zm-195.1-24.48c-9.57 16.02-16.73 33.28-21.28 51.32-.58 2.29-2.45 4.03-4.79 4.44l-38 6.64v35.98 35.98l38 6.64c2.33.4 4.21 2.15 4.79 4.44 4.54 18.03 11.7 35.3 21.27 51.31 1.22 2.03 1.12 4.59-.24 6.53l-22.2 31.58 50.89 50.89 31.58-22.19c1.94-1.36 4.5-1.46 6.53-.24 16.02 9.57 33.28 16.73 51.31 21.27 2.29.58 4.04 2.45 4.44 4.79l6.64 38h71.97l6.64-38c.41-2.34 2.15-4.21 4.45-4.79 18.03-4.54 35.3-11.7 51.31-21.27 2.03-1.22 4.59-1.12 6.52.24l31.58 22.19 50.89-50.89-22.19-31.58c-1.36-1.94-1.46-4.49-.24-6.53 9.57-16.01 16.73-33.27 21.28-51.31.58-2.3 2.45-4.04 4.78-4.44l38-6.64v-71.96l-38-6.64c-2.34-.41-4.21-2.15-4.79-4.44-4.54-18.04-11.7-35.3-21.27-51.31-1.22-2.04-1.12-4.59.24-6.53l22.2-31.58-50.89-50.89-31.58 22.19c-1.94 1.36-4.5 1.45-6.53.24-16.01-9.57-33.28-16.73-51.31-21.27-2.3-.58-4.04-2.46-4.45-4.79l-6.64-38h-71.97l-6.64 38c-.4 2.33-2.15 4.21-4.44 4.79-18.04 4.54-35.3 11.7-51.31 21.27-2.03 1.22-4.59 1.12-6.53-.24l-31.58-22.19-50.87 50.89 22.19 31.58c1.37 1.93 1.46 4.49.24 6.52z" fill-rule="evenodd"></path></svg>