<svg id="fi_16814668" fill="#fff" enable-background="new 0 0 500 500" viewBox="0 0 500 500" xmlns="http://www.w3.org/2000/svg"><path clip-rule="evenodd" d="m294.851 86.177-12.237-37.661c-1.665-5.124-6.242-8.45-11.63-8.45h-36.502c-5.388 0-9.965 3.325-11.629 8.45l-12.237 37.661c-.098.301-.32.516-.625.603-11.564 3.295-22.576 7.901-32.873 13.635-.277.154-.586.16-.869.016l-35.303-17.988c-4.801-2.446-10.388-1.561-14.198 2.249l-25.811 25.811c-3.809 3.81-4.694 9.397-2.248 14.198l17.988 35.303c.144.282.138.592-.016.869-5.735 10.296-10.337 21.309-13.635 32.872-.087.305-.301.527-.603.625l-37.661 12.237c-5.125 1.665-8.45 6.242-8.45 11.63v36.502c0 5.388 3.325 9.965 8.45 11.63l37.661 12.237c.301.098.516.32.603.625 3.208 11.257 7.658 21.99 13.181 32.05.209.381.641.563 1.06.445 13.888-3.915 25.329-11.333 38.593-17.075.252-.109.426-.301.511-.562s.056-.519-.083-.755c-9.842-16.661-15.492-36.093-15.492-56.845 0-61.822 50.117-111.939 111.939-111.939s111.939 56.629 111.939 111.939c0 100.639-122.159 126.111 27.648 68.364.229-.087.396-.239.503-.46 3.899-8.026 7.131-16.437 9.619-25.161.087-.305.301-.527.603-.625l37.661-12.237c5.124-1.665 8.45-6.242 8.45-11.63v-36.502c0-5.388-3.325-9.965-8.45-11.63l-37.661-12.237c-.301-.098-.516-.32-.603-.625-3.296-11.564-7.901-22.576-13.635-32.872-.154-.277-.16-.586-.016-.869l17.988-35.303c2.446-4.801 1.561-10.388-2.249-14.198l-25.811-25.811c-3.81-3.81-9.397-4.695-14.198-2.249l-35.304 17.988c-.282.144-.592.138-.869-.016-10.296-5.734-21.307-10.339-32.872-13.635-.307-.089-.529-.303-.627-.604zm-253.944 230.191h35.893c6.58 0 11.964 5.383 11.964 11.964v119.639c0 6.58-5.383 11.964-11.964 11.964h-35.893c-6.58 0-11.963-5.383-11.963-11.964v-119.639c0-6.58 5.383-11.964 11.963-11.964zm277.961 31.586 120.907-46.58c9.284-3.576 19.361-2.887 25.686 4.792l.944 1.145c6.808 8.266 6.061 20.334-1.712 27.699-6.267 5.938-11.979 11.967-18.613 16.262l-93.967 60.851c-25.158 16.291-57.351 35.726-87.763 38.203-24.128 1.965-48.004-6.863-72.169-10.347-28.694-4.137-58.807-4.617-88.673-4.419-.255.002-.476-.089-.657-.268-.181-.18-.273-.4-.273-.655v-104.18c0-.432.287-.796.706-.898 5.785-1.399 11.54-2.846 17.284-4.412 28.95-7.89 49.096-31.06 81.167-21.392l72.883 21.973c25.024 7.544 12.662 28.168 1.27 34.283-3.652 1.96-8.183 2.566-12.721 1.612-17.491-3.676-40.491-10.281-56.903-9.805-12.388.36-25.115 3.785-37.044 8.237-3.562 1.326-5.374 5.289-4.048 8.851 1.326 3.561 5.289 5.374 8.851 4.048 12.658-4.724 26.747-8.403 40.08-7.132 12.552 1.196 32.074 6.312 46.258 9.294 7.725 1.624 15.586.512 22.058-2.961 20.564-11.038-1.666-9.518 36.449-24.201zm-25.263-152.766c-3.815 0-6.908-3.093-6.908-6.908s3.093-6.908 6.908-6.908h30.138c3.813 0 6.908 3.096 6.908 6.908v30.138c0 3.815-3.093 6.908-6.908 6.908s-6.908-3.093-6.908-6.908v-11.232c0-.382-.218-.707-.57-.853-.353-.146-.737-.069-1.007.2l-63.688 63.688c-2.697 2.697-7.071 2.697-9.768 0l-20.756-20.756c-.36-.359-.946-.359-1.306 0l-34.542 34.542c-2.697 2.697-7.071 2.697-9.768 0s-2.697-7.071 0-9.768l40.079-40.079c2.697-2.697 7.071-2.697 9.768 0l20.756 20.756c.36.36.946.36 1.306 0l58.151-58.151c.27-.27.346-.654.2-1.007-.146-.352-.472-.57-.853-.57z" fill-rule="evenodd"></path></svg>