<svg width="40" height="40" viewBox="0 0 40 40" fill="none" xmlns="http://www.w3.org/2000/svg">
<g id="Paintbrush" clip-path="url(#clip0_46_203)">
<g id="Group">
<path id="Vector" d="M39.2235 13.809L37.2344 11.8201C36.5647 11.1504 35.6111 10.9052 34.7333 11.1185C34.9468 10.2404 34.7011 9.2869 34.0317 8.6174L29.7172 4.30282C29.3183 3.90397 28.815 3.65312 28.2844 3.56352C28.1947 3.03249 27.9435 2.52919 27.5451 2.13078L26.1908 0.776412C25.1555 -0.258804 23.4772 -0.258804 22.4419 0.776412L8.87829 14.3402C7.84307 15.3753 7.84307 17.0537 8.87829 18.0889L11.7671 20.9777C12.0379 21.2484 12.1692 21.6222 12.1274 22.003C12.0856 22.3838 11.8757 22.7207 11.5514 22.9273C2.94099 28.4159 2.13233 29.2246 1.78694 29.57C-0.595845 31.9528 -0.595934 35.83 1.78694 38.2127C4.16972 40.5955 8.04683 40.5955 10.4297 38.2127C10.7751 37.8673 11.5838 37.0585 17.0724 28.4482C17.278 28.1256 17.6145 27.9166 17.9958 27.8747C18.3786 27.8327 18.7526 27.9631 19.0221 28.2326L21.9109 31.1214C22.9461 32.1566 24.6245 32.1565 25.6597 31.1214L39.2235 17.5578C40.2586 16.5226 40.2586 14.8442 39.2235 13.809ZM23.7854 29.2472L20.8965 26.3584C20.059 25.5209 18.8841 25.1107 17.7067 25.24C16.5293 25.3692 15.4739 26.0248 14.8372 27.0236C12.4045 30.84 9.34005 35.5539 8.55542 36.3385C7.20397 37.6899 5.01284 37.6899 3.66139 36.3385C2.30993 34.987 2.30993 32.796 3.66139 31.4445C4.44593 30.6599 9.15989 27.5954 12.9763 25.1626C13.9756 24.5257 14.633 23.4704 14.7623 22.2924C14.8916 21.1144 14.4794 19.9413 13.6415 19.1033L10.7526 16.2145L12.8592 14.1079L25.8918 27.1406L23.7854 29.2472ZM27.768 25.2645L14.7353 12.2319L24.3164 2.65077L25.6708 4.00505L24.1581 7.36058C24.1066 7.47492 24.1313 7.60913 24.2197 7.69758C24.2206 7.69847 24.2216 7.69935 24.2225 7.70023C24.3132 7.78868 24.4495 7.81095 24.5637 7.75599L27.8428 6.17719L32.1574 10.4918L26.3883 19.0895C26.308 19.2092 26.3236 19.3689 26.4255 19.4706C26.4257 19.4708 26.426 19.4711 26.4261 19.4713C26.5285 19.573 26.6887 19.5879 26.808 19.5068L35.36 13.6943L37.3491 15.6833L27.768 25.2645Z" fill="white"/>
<path id="Vector_2" d="M6.52496 35.036C7.38705 35.036 8.08591 34.3371 8.08591 33.475C8.08591 32.6129 7.38705 31.9141 6.52496 31.9141C5.66287 31.9141 4.964 32.6129 4.964 33.475C4.964 34.3371 5.66287 35.036 6.52496 35.036Z" fill="white"/>
</g>
</g>
<defs>
<clipPath id="clip0_46_203">
<rect width="40" height="40" fill="white"/>
</clipPath>
</defs>
</svg>
