<svg width="40" height="40" viewBox="0 0 40 40" fill="none" xmlns="http://www.w3.org/2000/svg">
<g id="Nuclear plant" clip-path="url(#clip0_46_11)">
<g id="XMLID_1124_">
<g id="XMLID_437_">
<path id="XMLID_1551_" d="M39.9142 38.8626L39.4786 38.0122C36.3517 31.9068 34.6988 25.0539 34.6988 18.1944V17.1577C34.6988 16.7262 34.3489 16.3764 33.9175 16.3764H24.3601C23.9287 16.3764 23.5788 16.7262 23.5788 17.1577V18.1944C23.5788 20.6057 23.3764 23.0169 22.9772 25.395C21.8326 20.8143 21.2423 16.0951 21.2423 11.373V10C21.2423 9.56852 20.8924 9.21875 20.461 9.21875H8.58384V7.43508C8.58384 5.89828 9.73658 4.63516 11.2651 4.49695C11.6052 4.46617 11.8858 4.2182 11.9582 3.88453C12.2502 2.53906 13.4627 1.5625 14.8415 1.5625C15.9827 1.5625 17.0327 2.23148 17.5163 3.2668C17.6358 3.52258 17.884 3.69398 18.1656 3.71516C18.4476 3.73656 18.7182 3.60398 18.8745 3.36891C19.2687 2.77648 19.9276 2.42289 20.6373 2.42289C21.5121 2.42289 22.3076 2.97289 22.6167 3.79141C22.7315 4.09547 23.0225 4.29664 23.3475 4.29664H24.5998C25.2496 4.29664 25.7783 4.82539 25.7783 5.47523C25.7783 6.12508 25.2496 6.65383 24.5998 6.65383H22.6972C22.2658 6.65383 21.916 7.00359 21.916 7.43508C21.916 7.86656 22.2658 8.21633 22.6972 8.21633H24.5998C26.1112 8.21633 27.3408 6.98672 27.3408 5.47523C27.3408 3.96375 26.1112 2.73414 24.5998 2.73414H23.8417C23.1971 1.59477 21.9702 0.860391 20.6372 0.860391C19.7896 0.860391 18.9839 1.15016 18.3406 1.66508C17.4943 0.629531 16.211 0 14.8415 0C12.9183 0 11.2064 1.24297 10.5812 3.02352C9.67423 3.21875 8.84681 3.69023 8.21025 4.38297C7.44361 5.21734 7.02134 6.30133 7.02134 7.43516V10V11.373C7.02134 20.4982 4.82259 29.6145 0.662826 37.7363L0.0860287 38.8626C-0.0380338 39.1048 -0.0270963 39.3941 0.114779 39.6262C0.256732 39.8584 0.509232 40 0.781341 40H19.0588H27.4823H39.2188C39.491 40 39.7435 39.8584 39.8854 39.6263C40.0274 39.3941 40.0382 39.1048 39.9142 38.8626ZM25.1413 17.939H33.1363V18.1945C33.1363 18.552 33.1418 18.9095 33.1505 19.2669H25.1273C25.1358 18.9095 25.1413 18.552 25.1413 18.1945V17.939H25.1413ZM19.0588 38.4375H2.05923C5.83595 31.0598 8.03579 22.8838 8.4929 14.6094H14.2634C14.6948 14.6094 15.0446 14.2596 15.0446 13.8281C15.0446 13.3966 14.6948 13.0469 14.2634 13.0469H8.55931C8.57533 12.4891 8.58384 11.9311 8.58384 11.373V10.7812H19.6798V11.373C19.6798 20.7407 21.9358 30.0988 26.2044 38.4375H19.0588ZM27.9599 38.4375L27.6008 37.7363C26.1129 34.8313 24.8774 31.7986 23.9022 28.6842C24.5194 26.1068 24.9085 23.4749 25.0638 20.8293H33.2146C33.5769 26.9377 35.192 32.9703 37.9422 38.4375H27.9599Z" fill="white"/>
<path id="XMLID_1557_" d="M17.4609 14.6094C17.6664 14.6094 17.868 14.5258 18.0132 14.3805C18.1585 14.2352 18.2422 14.0336 18.2422 13.8281C18.2422 13.6227 18.1586 13.4211 18.0132 13.2758C17.868 13.1305 17.6664 13.0469 17.4609 13.0469C17.2555 13.0469 17.0539 13.1305 16.9086 13.2758C16.7633 13.4211 16.6797 13.6227 16.6797 13.8281C16.6797 14.0336 16.7632 14.2352 16.9086 14.3805C17.054 14.5258 17.2555 14.6094 17.4609 14.6094Z" fill="white"/>
<path id="XMLID_2466_" d="M15.8591 27.9888L17.8914 24.4686C17.9951 24.2929 18.0261 24.0834 17.9772 23.8848C17.9264 23.6785 17.7938 23.5018 17.6099 23.3954C16.5569 22.7861 15.3542 22.4641 14.1318 22.4641C12.9094 22.4641 11.7066 22.7861 10.6537 23.3954C10.4668 23.5035 10.3333 23.6843 10.2843 23.8945C10.239 24.0887 10.2699 24.2926 10.3694 24.464L12.4044 27.9887C12.2454 28.1805 12.1178 28.3993 12.0292 28.6368H7.95813C7.52688 28.6368 7.17727 28.9861 7.17688 29.4174C7.17571 30.6339 7.49821 31.8365 8.10946 32.8951C8.72071 33.9538 9.60095 34.8343 10.655 35.4416C10.7746 35.5105 10.9091 35.5457 11.0445 35.5457C11.1203 35.5457 11.1963 35.5347 11.2703 35.5125C11.4619 35.4548 11.6236 35.3257 11.7228 35.1532L13.7572 31.6295C13.8791 31.6501 14.0041 31.6614 14.1318 31.6614C14.2595 31.6614 14.3845 31.6501 14.5063 31.6295L16.5375 35.1476C16.6363 35.3233 16.7995 35.4545 16.9934 35.5129C17.0671 35.5351 17.143 35.546 17.2185 35.546C17.3541 35.546 17.4888 35.5107 17.6085 35.4417C18.6626 34.8344 19.5429 33.9539 20.1541 32.8952C20.7652 31.8365 21.0877 30.634 21.0866 29.4175C21.0863 28.9862 20.7358 28.6369 20.3045 28.6369H16.2342C16.1457 28.3993 16.0181 28.1806 15.8591 27.9888ZM14.1318 30.0987C13.7565 30.0987 13.4512 29.7934 13.4512 29.4181C13.4512 29.0428 13.7565 28.7375 14.1318 28.7375C14.5071 28.7375 14.8124 29.0428 14.8124 29.4181C14.8124 29.7934 14.507 30.0987 14.1318 30.0987ZM14.1318 24.0267C14.8165 24.0267 15.4928 24.1568 16.1229 24.4068L14.5063 27.2069C14.3845 27.1864 14.2595 27.1751 14.1318 27.1751C14.0041 27.1751 13.8791 27.1864 13.7572 27.2069L12.1406 24.4068C12.7707 24.1568 13.4471 24.0267 14.1318 24.0267ZM10.7874 33.6482C10.2558 33.2275 9.80493 32.7068 9.46259 32.1138C9.12024 31.5208 8.8947 30.8701 8.79618 30.1993H12.0293C12.1178 30.4369 12.2454 30.6556 12.4044 30.8474L10.7874 33.6482ZM18.8009 32.1139C18.4585 32.7068 18.0077 33.2275 17.4761 33.6483L15.8591 30.8475C16.0181 30.6557 16.1456 30.4369 16.2341 30.1994H19.4673C19.3688 30.8701 19.1432 31.5209 18.8009 32.1139Z" fill="white"/>
<path id="XMLID_2471_" d="M29.9344 13.2472C29.9344 13.8312 30.1618 14.3802 30.5747 14.7931C30.7273 14.9457 30.9272 15.0219 31.1271 15.0219C31.327 15.0219 31.527 14.9456 31.6795 14.7931C31.9846 14.488 31.9846 13.9933 31.6795 13.6882C31.5617 13.5704 31.4968 13.4138 31.4968 13.2472C31.4968 13.0807 31.5617 12.924 31.6795 12.8061C32.5319 11.9537 32.5319 10.5667 31.6795 9.7144C31.3745 9.40933 30.8799 9.40933 30.5746 9.7144C30.2695 10.0195 30.2695 10.5142 30.5746 10.8192C30.8177 11.0625 30.8177 11.4582 30.5746 11.7014C30.1618 12.1142 29.9344 12.6632 29.9344 13.2472Z" fill="white"/>
<path id="XMLID_2472_" d="M26.5979 9.71437C26.2928 10.0194 26.2928 10.5141 26.5979 10.8192C26.841 11.0624 26.841 11.4581 26.5979 11.7013C26.185 12.1142 25.9576 12.6633 25.9576 13.2473C25.9576 13.8312 26.185 14.3802 26.5979 14.7931C26.7505 14.9457 26.9504 15.0219 27.1503 15.0219C27.3502 15.0219 27.5502 14.9456 27.7027 14.7931C28.0078 14.488 28.0078 13.9933 27.7027 13.6883C27.5848 13.5705 27.52 13.4138 27.52 13.2473C27.52 13.0807 27.5848 12.9241 27.7027 12.8062C28.5551 11.9537 28.5551 10.5668 27.7027 9.71444C27.3977 9.40929 26.9031 9.40937 26.5979 9.71437Z" fill="white"/>
</g>
</g>
</g>
<defs>
<clipPath id="clip0_46_11">
<rect width="40" height="40" fill="white"/>
</clipPath>
</defs>
</svg>
