<svg width="40" height="40" viewBox="0 0 40 40" fill="none" xmlns="http://www.w3.org/2000/svg">
<g id="Oil tank">
<g id="Group">
<path id="Vector" d="M27.0312 21.5625C28.3257 21.5625 29.375 20.5132 29.375 19.2188C29.375 18.2138 27.9622 16.2067 27.3304 15.4523C27.1743 15.2659 26.8882 15.2659 26.7321 15.4523C26.1003 16.2067 24.6875 18.2138 24.6875 19.2188C24.6875 20.5132 25.7368 21.5625 27.0312 21.5625Z" fill="white"/>
<path id="Vector_2" d="M37.6562 30.1562H36.4062V7.5C36.4062 7.18984 36.2228 6.90914 35.9388 6.78453C33.5447 5.73453 30.3813 5.15625 27.0312 5.15625C23.6812 5.15625 20.5178 5.73453 18.1237 6.78453C17.8397 6.90914 17.6562 7.18984 17.6562 7.5V8.67961C16.1824 8.41836 14.5978 8.28125 12.9688 8.28125V7.5C12.9688 7.06852 12.619 6.71875 12.1875 6.71875C11.756 6.71875 11.4062 7.06852 11.4062 7.5V8.32367C10.3274 8.38266 9.27898 8.50273 8.28125 8.67961V7.5C8.28125 7.06852 7.93148 6.71875 7.5 6.71875C7.06852 6.71875 6.71875 7.06852 6.71875 7.5V9.01375C5.76062 9.25625 4.86719 9.55602 4.06117 9.90953C3.77719 10.0341 3.59375 10.3148 3.59375 10.625V30.1562H2.34375C1.05141 30.1562 0 31.2077 0 32.5C0 33.7923 1.05141 34.8438 2.34375 34.8438H37.6562C38.9486 34.8438 40 33.7923 40 32.5C40 31.2077 38.9486 30.1562 37.6562 30.1562ZM19.2188 8.02125C23.6517 6.27781 30.4108 6.27781 34.8438 8.02125V30.1562H22.3438V10.625C22.3438 10.3148 22.1603 10.0341 21.8763 9.90953C21.0704 9.55602 20.1769 9.25625 19.2188 9.01375V8.02125ZM12.9688 9.83867C15.7668 9.83867 18.5648 10.2745 20.7812 11.1462V30.1562H12.9688V9.83867ZM8.28125 10.2663C9.28492 10.0746 10.3373 9.94687 11.4062 9.8843V11.4062H8.28125V10.2663ZM8.28125 12.9688H11.4062V16.0938H8.28125V12.9688ZM8.28125 17.6562H11.4062V20.7812H8.28125V17.6562ZM8.28125 22.3438H11.4062V25.4688H8.28125V22.3438ZM8.28125 27.0312H11.4062V30.1562H8.28125V27.0312ZM5.15625 11.1462C5.64992 10.9521 6.17375 10.7808 6.71875 10.6298V30.1562H5.15625V11.1462ZM37.6562 33.2812H2.34375C1.91297 33.2812 1.5625 32.9308 1.5625 32.5C1.5625 32.0692 1.91297 31.7188 2.34375 31.7188H37.6562C38.087 31.7188 38.4375 32.0692 38.4375 32.5C38.4375 32.9308 38.087 33.2812 37.6562 33.2812Z" fill="white"/>
</g>
</g>
</svg>
