<svg width="40" height="40" viewBox="0 0 40 40" fill="none" xmlns="http://www.w3.org/2000/svg">
<g id="Home" clip-path="url(#clip0_46_158)">
<g id="Group">
<g id="Group_2">
<path id="Vector" d="M29.3022 11.0883C29.157 10.943 28.9554 10.8594 28.7499 10.8594C28.5445 10.8594 28.3429 10.943 28.1976 11.0883C28.0523 11.2336 27.9687 11.4344 27.9687 11.6406C27.9687 11.8461 28.0522 12.0477 28.1976 12.193C28.343 12.3383 28.5445 12.4219 28.7499 12.4219C28.9554 12.4219 29.157 12.3383 29.3022 12.193C29.4475 12.0477 29.5312 11.8461 29.5312 11.6406C29.5312 11.4352 29.4476 11.2336 29.3022 11.0883Z" fill="white"/>
</g>
</g>
<g id="Group_3">
<g id="Group_4">
<path id="Vector_2" d="M11.7187 22.0312H5.46873C5.03733 22.0312 4.68748 22.381 4.68748 22.8125V29.0625C4.68748 29.494 5.03733 29.8437 5.46873 29.8437H11.7187C12.1501 29.8437 12.5 29.494 12.5 29.0625V22.8125C12.5 22.381 12.1502 22.0312 11.7187 22.0312ZM10.9375 28.2812H6.24998V23.5937H10.9375V28.2812Z" fill="white"/>
</g>
</g>
<g id="Group_5">
<g id="Group_6">
<path id="Vector_3" d="M39.5177 16.3876C39.2257 16.2666 38.8896 16.3337 38.6663 16.5569L30.7055 24.5177C30.7054 24.5179 30.7053 24.5179 30.7051 24.5181C30.7049 24.5182 30.7049 24.5183 30.7048 24.5185L21.4248 33.7985C21.4247 33.7986 21.4246 33.7987 21.4244 33.7989C21.4243 33.799 21.4242 33.7991 21.424 33.7992L16.5569 38.6663C16.3336 38.8898 16.2667 39.2259 16.3876 39.5178C16.5085 39.8097 16.7933 40 17.1093 40H39.2187C39.6501 40 39.9999 39.6503 39.9999 39.2188V17.1094C39.9999 16.7935 39.8096 16.5086 39.5177 16.3876ZM38.4374 38.4375H18.9955L21.9768 35.4562L22.7226 36.202C22.8752 36.3546 23.0751 36.4308 23.275 36.4308C23.475 36.4308 23.6749 36.3546 23.8275 36.202C24.1325 35.8969 24.1325 35.4022 23.8275 35.0971L23.0817 34.3513L25.0704 32.3625L25.8161 33.1082C25.9687 33.2608 26.1686 33.3371 26.3685 33.3371C26.5685 33.3371 26.7684 33.2607 26.921 33.1082C27.226 32.8032 27.226 32.3085 26.921 32.0034L26.1752 31.2576L28.1639 29.2689L28.9097 30.0146C29.0623 30.1672 29.2622 30.2435 29.4621 30.2435C29.6621 30.2435 29.862 30.1672 30.0146 30.0146C30.3196 29.7096 30.3196 29.2149 30.0146 28.9097L29.2688 28.1639L31.2574 26.1753L32.0032 26.9211C32.1558 27.0736 32.3557 27.1499 32.5556 27.1499C32.7556 27.1499 32.9555 27.0736 33.1081 26.9211C33.4131 26.616 33.4131 26.1213 33.1081 25.8161L32.3623 25.0704L34.351 23.0816L35.0967 23.8273C35.2493 23.9799 35.4492 24.0561 35.6492 24.0561C35.8491 24.0561 36.049 23.9798 36.2016 23.8273C36.5067 23.5222 36.5067 23.0275 36.2016 22.7225L35.4558 21.9767L38.4374 18.9955V38.4375Z" fill="white"/>
</g>
</g>
<g id="Group_7">
<g id="Group_8">
<path id="Vector_4" d="M35.6114 25.8181C35.3195 25.6971 34.9834 25.764 34.76 25.9874L25.9875 34.76C25.7641 34.9834 25.6971 35.3195 25.8181 35.6114C25.939 35.9034 26.2239 36.0937 26.5399 36.0937H35.3124C35.7438 36.0937 36.0937 35.7439 36.0937 35.3124V26.5399C36.0937 26.2239 35.9034 25.939 35.6114 25.8181ZM34.5312 34.5312H28.426L34.5312 28.426V34.5312Z" fill="white"/>
</g>
</g>
<g id="Group_9">
<g id="Group_10">
<path id="Vector_5" d="M36.1766 11.6612C35.9616 11.4462 35.6414 11.3754 35.3555 11.48L30.0211 13.4336C29.9145 13.4726 29.8177 13.5344 29.7373 13.6147L28.2374 15.1146L18.4432 5.32037C18.2966 5.17389 18.0979 5.09154 17.8907 5.09154C17.6835 5.09154 17.4848 5.17389 17.3383 5.32037L5.54904 17.1096H2.66756L17.8907 1.88639L26.2445 10.2402C26.5497 10.5453 27.0442 10.5453 27.3495 10.2402C27.6545 9.93513 27.6545 9.44044 27.3495 9.13529L18.4432 0.229052C18.1381 -0.0760252 17.6435 -0.0760252 17.3383 0.229052L0.228969 17.3384C0.00560974 17.5618 -0.0612651 17.8978 0.059594 18.1898C0.180531 18.4818 0.465374 18.6721 0.781389 18.6721H1.56264V39.219C1.56264 39.6505 1.91248 40.0002 2.34389 40.0002H14.7646C15.196 40.0002 15.5459 39.6505 15.5459 39.219C15.5459 38.7875 15.196 38.4377 14.7646 38.4377H3.12513V18.6721H5.87263C6.07982 18.6721 6.27849 18.5898 6.42505 18.4433L17.8907 6.97763L27.1324 16.2194L15.547 27.8049V20.7815H21.0157C21.4471 20.7815 21.797 20.4317 21.797 20.0003C21.797 19.5688 21.4471 19.219 21.0157 19.219H14.7657C14.3343 19.219 13.9845 19.5688 13.9845 20.0003V29.0627C13.9845 29.1539 14.0009 29.2409 14.0296 29.3223L13.3296 30.0222C12.0929 31.2589 12.0929 33.2713 13.3296 34.508C13.9481 35.1264 14.7602 35.4356 15.5725 35.4355C16.3847 35.4355 17.1971 35.1263 17.8154 34.508L24.4038 27.9196C24.7089 27.6145 24.7089 27.1199 24.4038 26.8148C24.0988 26.5097 23.6042 26.5097 23.2989 26.8148L18.3074 31.8063L16.0314 29.5303L30.3053 15.2564L32.5813 17.5324L27.127 22.9867C26.822 23.2918 26.822 23.7865 27.127 24.0916C27.4322 24.3967 27.9267 24.3967 28.232 24.0916L34.223 18.1005C34.3033 18.0202 34.3652 17.9233 34.4041 17.8168L36.3577 12.4823C36.4623 12.1967 36.3917 11.8763 36.1766 11.6612ZM17.2026 32.9111L16.7106 33.4031C16.4066 33.7071 16.0025 33.8745 15.5726 33.8745C15.1427 33.8745 14.7385 33.7071 14.4346 33.4031C14.1306 33.0991 13.9632 32.695 13.9632 32.2652C13.9632 31.8353 14.1305 31.4311 14.4346 31.1271L14.9266 30.6351L17.2026 32.9111ZM33.3662 16.1073L31.7304 14.4715L34.3115 13.5263L33.3662 16.1073Z" fill="white"/>
</g>
</g>
<g id="Group_11">
<g id="Group_12">
<path id="Vector_6" d="M26.3038 24.9142C26.1585 24.7689 25.957 24.6853 25.7515 24.6853C25.546 24.6853 25.3445 24.7689 25.1992 24.9142C25.0539 25.0603 24.9703 25.2611 24.9703 25.4666C24.9703 25.6728 25.0538 25.8736 25.1992 26.0197C25.3445 26.165 25.5453 26.2478 25.7515 26.2478C25.957 26.2478 26.1585 26.165 26.3038 26.0197C26.4491 25.8736 26.5328 25.672 26.5328 25.4666C26.5328 25.2611 26.4492 25.0603 26.3038 24.9142Z" fill="white"/>
</g>
</g>
<g id="Group_13">
<g id="Group_14">
<path id="Vector_7" d="M17.8906 11.7969C16.2536 11.7969 14.9218 13.1287 14.9218 14.7656C14.9218 16.4026 16.2536 17.7344 17.8906 17.7344C19.5275 17.7344 20.8593 16.4026 20.8593 14.7656C20.8593 13.1287 19.5275 11.7969 17.8906 11.7969ZM17.8906 16.1719C17.1152 16.1719 16.4843 15.5411 16.4843 14.7656C16.4843 13.9902 17.1152 13.3594 17.8906 13.3594C18.666 13.3594 19.2968 13.9902 19.2968 14.7656C19.2968 15.541 18.666 16.1719 17.8906 16.1719Z" fill="white"/>
</g>
</g>
</g>
<defs>
<clipPath id="clip0_46_158">
<rect width="40" height="40" fill="white"/>
</clipPath>
</defs>
</svg>
