<svg id="fi_2962174" fill="#fff" enable-background="new 0 0 64 64"  viewBox="0 0 64 64"  xmlns="http://www.w3.org/2000/svg"><g><path d="m60.462 47.124-2.293 2.293-2.586-2.586 2.293-2.293c.391-.391.391-1.023 0-1.414s-1.024-.391-1.414 0l-2.293 2.293-1.293-1.293c-.391-.391-1.024-.391-1.414 0l-4.586 4.586c-1.169 1.169-1.169 3.073 0 4.242l.19.19c-4.423 3.169-9.601 4.858-15.066 4.858-14.337 0-26-11.664-26-26 0-1.654-1.346-3-3-3s-3 1.346-3 3c0 17.645 14.355 32 32 32 6.987 0 13.829-2.322 19.377-6.548l.671.671c.564.565 1.318.877 2.121.877s1.557-.312 2.121-.876l4.586-4.586c.391-.391.391-1.023 0-1.414l-1.293-1.293 2.293-2.293c.391-.391.391-1.023 0-1.414s-1.024-.391-1.414 0zm-28.462 14.876c-16.542 0-30-13.458-30-30 0-.551.448-1 1-1s1 .449 1 1c0 15.439 12.56 28 28 28 5.998 0 11.676-1.886 16.498-5.426l1.437 1.437c-5.211 3.906-11.379 5.989-17.935 5.989zm22.876-5.291c-.375.375-1.039.375-1.414 0l-5.172-5.172c-.39-.39-.39-1.024 0-1.414l3.879-3.879 6.586 6.586z"></path><path d="m34.29 15.043c-.421-.129-.878.036-1.122.402l-12 18c-.204.307-.224.701-.05 1.026.174.326.513.529.882.529h7v13c0 .44.288.83.71.957.096.029.193.043.29.043.328 0 .644-.162.832-.445l12-18c.204-.307.224-.701.05-1.026-.174-.326-.513-.529-.882-.529h-7v-13c0-.44-.288-.83-.71-.957zm5.842 15.957-9.132 13.697v-10.697c0-.552-.447-1-1-1h-6.132l9.132-13.697v10.697c0 .552.447 1 1 1z"></path><path d="m32 0c-6.987 0-13.829 2.322-19.377 6.548l-.671-.671c-1.129-1.13-3.113-1.13-4.242 0l-4.586 4.586c-.391.391-.391 1.023 0 1.414l1.293 1.293-2.293 2.293c-.391.391-.391 1.023 0 1.414.195.195.451.293.707.293s.512-.098.707-.293l2.293-2.293 2.586 2.586-2.293 2.293c-.391.391-.391 1.023 0 1.414.195.195.451.293.707.293s.512-.098.707-.293l2.293-2.293 1.293 1.293c.195.195.451.293.707.293s.512-.098.707-.293l4.586-4.586c1.169-1.169 1.169-3.073 0-4.242l-.19-.19c4.423-3.17 9.601-4.859 15.066-4.859 14.337 0 26 11.664 26 26 0 1.654 1.346 3 3 3s3-1.346 3-3c0-17.645-14.356-32-32-32zm-16.29 13.877-3.879 3.879-6.586-6.586 3.879-3.879c.375-.375 1.039-.375 1.414 0l5.172 5.172c.39.389.39 1.024 0 1.414zm45.29 19.123c-.552 0-1-.449-1-1 0-15.44-12.561-28-28-28-5.998 0-11.676 1.886-16.498 5.426l-1.436-1.435c5.161-3.857 11.475-5.991 17.934-5.991 16.542 0 30 13.458 30 30 0 .551-.448 1-1 1z"></path></g></svg>